<?xml version="1.0" encoding="UTF-8"?>
<svg id="Layer_1" data-name="Layer 1" xmlns="http://www.w3.org/2000/svg" viewBox="0 0 57.49 16.13">
  <defs>
    <style>
      .cls-1 {
        fill: #231f20;
      }
    </style>
  </defs>
  <path class="cls-1" d="m6.22,4.86H0v-.71h6.22v.71Zm0,8.2h-1.83c-.82,0-1.48-.2-1.99-.59-.5-.39-.75-1.1-.75-2.11V1.87h.82v8.69c0,.69.18,1.15.54,1.4.36.24.89.36,1.59.36h1.63v.74Z"/>
  <path class="cls-1" d="m10.34,13.13c-.93-.2-1.69-.57-2.28-1.11-.59-.54-.99-1.19-1.2-1.95s-.22-1.58-.03-2.46c.19-.86.54-1.6,1.05-2.2s1.14-1.03,1.9-1.27c.76-.24,1.6-.26,2.54-.06.8.17,1.49.49,2.06.94.57.45.97,1.02,1.21,1.69.24.68.26,1.44.08,2.29-.03.15-.08.3-.12.44-.05.14-.1.25-.14.34l-8.15-1.78.12-.57,7.78,1.69-.37.27c.04-.12.07-.23.11-.36s.06-.25.09-.38c.22-1.02.08-1.86-.42-2.54-.5-.68-1.3-1.14-2.4-1.38-1.29-.28-2.3-.14-3.05.41-.75.56-1.24,1.4-1.49,2.53l-.04.16c-.25,1.15-.15,2.12.29,2.94.44.81,1.31,1.36,2.61,1.64,1.12.25,2,.22,2.64-.07.64-.29,1.04-.8,1.2-1.52l.02-.11.78.17-.02.11c-.13.59-.42,1.07-.88,1.45-.46.38-1.03.62-1.7.74-.68.12-1.4.09-2.17-.07Z"/>
  <path class="cls-1" d="m18.19,16.13h-.82V4.15h.71v3.01l.11.24v8.74Zm3.9-2.9c-.97,0-1.8-.26-2.51-.77s-1.18-1.21-1.41-2.09h-.33v-1.6h.34c0,.76.16,1.42.48,1.99s.76.99,1.33,1.29c.57.3,1.22.44,1.96.44s1.41-.12,1.98-.37,1.01-.65,1.33-1.21c.32-.56.48-1.33.48-2.31s-.16-1.73-.49-2.3c-.33-.57-.77-.97-1.33-1.21-.56-.24-1.2-.36-1.91-.36-1.2,0-2.13.35-2.81,1.04-.68.7-1.02,1.64-1.02,2.84h-.34l-.04-1.92h.42c.22-.79.67-1.43,1.34-1.94s1.54-.76,2.59-.76c.93,0,1.73.2,2.38.6.66.4,1.16.95,1.5,1.65s.52,1.49.52,2.38-.17,1.67-.52,2.38-.85,1.25-1.51,1.66c-.67.41-1.48.61-2.45.61Z"/>
  <path class="cls-1" d="m29.1,13.06h-.82V.91h.82v12.15Zm7.62,0h-.8v-5.13c0-1.11-.27-1.93-.8-2.45-.53-.52-1.33-.78-2.39-.78-.86,0-1.56.18-2.09.55-.54.37-.93.87-1.17,1.51s-.36,1.38-.36,2.21h-.36l.16-2.1h.25c.11-.5.31-.96.62-1.41.3-.44.71-.8,1.23-1.08.52-.28,1.16-.42,1.92-.42.83,0,1.54.17,2.1.52.57.34.99.82,1.27,1.42.28.6.42,1.29.42,2.07v5.08Z"/>
  <path class="cls-1" d="m41.8,13.16c-.94-.19-1.7-.55-2.29-1.08s-1-1.18-1.22-1.94c-.22-.76-.24-1.58-.06-2.46.18-.86.52-1.6,1.02-2.21s1.13-1.04,1.89-1.29,1.6-.28,2.54-.09c.8.17,1.5.47,2.07.92.57.45.98,1.01,1.23,1.68s.28,1.44.1,2.29c-.03.15-.07.3-.12.44-.05.14-.09.25-.13.34l-8.17-1.69.12-.57,7.8,1.61-.37.28c.04-.12.07-.24.1-.36.03-.12.06-.25.09-.38.21-1.02.06-1.86-.45-2.54-.51-.67-1.31-1.12-2.42-1.35-1.29-.27-2.31-.12-3.04.44-.74.56-1.23,1.41-1.46,2.55l-.03.16c-.24,1.15-.13,2.13.32,2.94.45.81,1.33,1.35,2.63,1.62,1.12.23,2,.2,2.64-.1.64-.3,1.03-.81,1.18-1.53l.02-.11.78.16-.02.11c-.12.59-.41,1.08-.87,1.46-.46.38-1.02.64-1.69.76-.67.13-1.4.11-2.17-.05Z"/>
  <path class="cls-1" d="m49.88,13.1h-.82V4.2h.71v2.85l.11.09v5.97Zm7.62,0h-.82v-5.13c0-1-.25-1.79-.76-2.37s-1.31-.86-2.39-.86c-1.17,0-2.07.36-2.7,1.09-.63.73-.94,1.73-.94,3.01l-.34.02.05-1.85h.25c.11-.51.33-.99.65-1.45.33-.46.76-.83,1.3-1.12.54-.28,1.17-.43,1.89-.43.85,0,1.55.18,2.11.55.56.37.99.85,1.27,1.46s.43,1.27.43,2v5.08Z"/>
</svg>