<?xml version="1.0" encoding="UTF-8"?>
<svg id="Layer_1" data-name="Layer 1" xmlns="http://www.w3.org/2000/svg" viewBox="0 0 10.67 12.79">
  <defs>
    <style>
      .cls-1 {
        fill: #231f20;
      }
    </style>
  </defs>
  <path class="cls-1" d="m5.11,12.33c-1.22,0-2.21-.2-2.96-.61-.75-.41-1.3-.97-1.64-1.69-.34-.72-.51-1.56-.51-2.51v-.56h2.07v.58c0,.65.09,1.19.26,1.62.17.43.48.75.92.96.44.21,1.06.32,1.86.32s1.42-.1,1.86-.31c.44-.21.75-.52.94-.93s.28-.94.28-1.57V0h2.05v7.62c0,.93-.17,1.75-.51,2.46-.34.71-.89,1.26-1.64,1.66-.76.4-1.75.6-2.98.6Z"/>
</svg>