<?xml version="1.0" encoding="UTF-8"?>
<svg id="Layer_1" data-name="Layer 1" xmlns="http://www.w3.org/2000/svg" viewBox="0 0 29.78 22.53">
  <defs>
    <style>
      .cls-1 {
        fill: #231f20;
      }
    </style>
  </defs>
  <path class="cls-1" d="m18.24,19.33c-1.55,0-2.83-.24-3.83-.71-1-.47-1.73-1.11-2.2-1.91-.46-.8-.7-1.67-.7-2.62v-.14h1.08v.29c0,.86.2,1.6.59,2.2.39.6,1,1.06,1.84,1.38.83.32,1.9.48,3.22.48,1.12,0,2.05-.12,2.8-.35.74-.23,1.31-.58,1.69-1.04.38-.46.58-1.05.58-1.75,0-1.02-.32-1.77-.95-2.23-.63-.46-1.6-.84-2.89-1.13l-3.05-.62c-.83-.19-1.61-.44-2.34-.74-.73-.3-1.31-.73-1.74-1.28-.43-.55-.65-1.28-.65-2.17,0-.51.12-1.02.35-1.52.23-.5.6-.96,1.09-1.36.5-.4,1.14-.72,1.92-.96.78-.24,1.72-.36,2.81-.36,1.47,0,2.67.24,3.6.72.93.48,1.61,1.12,2.05,1.91s.66,1.66.66,2.6v.14h-1.08v-.29c0-.86-.19-1.6-.56-2.2-.38-.6-.95-1.06-1.73-1.37-.78-.31-1.76-.47-2.96-.47-1.14,0-2.08.11-2.83.34-.75.22-1.31.56-1.68,1.01-.37.45-.55,1.01-.55,1.68s.14,1.26.42,1.68c.28.42.71.75,1.3,1s1.32.48,2.22.68l3.02.62c.88.18,1.67.43,2.38.76.7.33,1.26.77,1.67,1.32.41.55.61,1.26.61,2.12,0,.72-.22,1.41-.66,2.08-.44.66-1.11,1.2-2,1.61-.9.41-2.06.61-3.48.61Z"/>
</svg>