<?xml version="1.0" encoding="UTF-8"?>
<svg id="Layer_1" data-name="Layer 1" xmlns="http://www.w3.org/2000/svg" viewBox="0 0 69.43 11.83">
  <defs>
    <style>
      .cls-1 {
        fill: #fff;
      }

      .cls-2 {
        fill: #231f20;
      }
    </style>
  </defs>
  <rect class="cls-1" y=".22" width="69.61" height="12.36"/>
  <path class="cls-2" d="m5,9.95c-.99,0-1.87-.2-2.62-.59-.75-.39-1.34-.94-1.76-1.65-.42-.71-.62-1.52-.62-2.44s.21-1.76.62-2.47,1-1.25,1.76-1.64c.76-.39,1.63-.59,2.62-.59s1.9.2,2.65.59c.75.39,1.33.94,1.75,1.64s.63,1.52.63,2.47-.21,1.73-.63,2.44c-.42.71-1,1.26-1.75,1.65-.75.39-1.63.59-2.65.59Zm0-1.74c1.1,0,1.89-.25,2.38-.75.48-.5.73-1.23.73-2.19s-.24-1.69-.73-2.2-1.28-.77-2.38-.77-1.87.26-2.36.77c-.48.51-.73,1.25-.73,2.2s.24,1.68.73,2.19c.48.5,1.27.75,2.36.75Z"/>
  <path class="cls-2" d="m12.91,12.4h-1.96V.25h1.96v12.15Zm7.52,0h-1.94v-4.9c0-.91-.21-1.56-.63-1.95-.42-.39-1.11-.59-2.05-.59-.71,0-1.28.12-1.7.37-.42.25-.73.6-.92,1.05-.19.45-.28,1-.28,1.64l-.38.02.09-1.9h.4c.11-.51.3-.99.59-1.43s.69-.81,1.21-1.09,1.16-.42,1.92-.42c.82,0,1.51.17,2.06.5.55.33.96.79,1.23,1.36.27.57.41,1.23.41,1.97v5.37Z"/>
  <path class="cls-2" d="m23.9,9.61h-1.96V.6h1.79v2.83l.16.09v6.09Zm7.45,0h-1.96v-4.9c0-.85-.2-1.48-.61-1.9-.41-.42-1.08-.63-2.02-.63s-1.7.25-2.17.75c-.46.5-.7,1.24-.7,2.22l-.34.02-.09-1.78h.4c.1-.51.29-.99.59-1.44.3-.45.71-.82,1.23-1.11.53-.28,1.17-.43,1.93-.43.83,0,1.53.17,2.08.51.56.34.97.79,1.24,1.36.27.57.41,1.2.41,1.9v5.42Z"/>
  <path class="cls-2" d="m36.77,9.71c-1.45,0-2.57-.28-3.36-.83-.79-.56-1.19-1.35-1.19-2.39v-.05h1.96v.14c0,.59.2,1,.59,1.22.39.22,1.06.33,2,.33.88,0,1.48-.09,1.8-.28.32-.19.48-.48.48-.88,0-.38-.12-.64-.37-.8s-.7-.28-1.35-.36l-2.47-.33c-.86-.11-1.53-.35-2.01-.73s-.72-.95-.72-1.71c0-.53.16-1,.47-1.41.31-.4.79-.72,1.41-.95.63-.23,1.4-.34,2.32-.34s1.71.12,2.37.36c.66.24,1.17.6,1.52,1.09.36.48.53,1.08.53,1.8v.05h-1.94v-.11c0-.35-.07-.65-.22-.89-.15-.24-.4-.43-.77-.55-.37-.13-.88-.19-1.55-.19-.83,0-1.41.1-1.74.29-.33.19-.49.5-.49.92,0,.35.12.6.36.76.24.16.7.28,1.36.38l2.08.29c1.06.13,1.85.39,2.36.78s.76.96.76,1.71c0,.56-.17,1.04-.53,1.44-.35.41-.84.71-1.47.92-.63.21-1.37.32-2.21.32Z"/>
  <path class="cls-2" d="m47,9.78c-.99,0-1.87-.2-2.62-.59-.75-.39-1.34-.94-1.76-1.65-.42-.71-.62-1.52-.62-2.44s.21-1.76.62-2.47,1-1.25,1.76-1.64c.76-.39,1.63-.59,2.62-.59s1.9.2,2.65.59c.75.39,1.33.94,1.75,1.64s.63,1.52.63,2.47-.21,1.73-.63,2.44c-.42.71-1,1.26-1.75,1.65-.75.39-1.63.59-2.65.59Zm0-1.74c1.1,0,1.89-.25,2.38-.75.48-.5.73-1.23.73-2.19s-.24-1.69-.73-2.2-1.28-.77-2.38-.77-1.87.26-2.36.77c-.48.51-.73,1.25-.73,2.2s.24,1.68.73,2.19c.48.5,1.27.75,2.36.75Z"/>
  <path class="cls-2" d="m54.87,9.76h-1.96V.75h1.79v2.83l.16.09v6.09Zm7.45,0h-1.96v-4.9c0-.85-.2-1.48-.61-1.9s-1.08-.63-2.02-.63-1.7.25-2.17.75c-.47.5-.7,1.24-.7,2.22l-.34.02-.09-1.78h.4c.1-.51.29-.99.59-1.44.3-.45.71-.82,1.23-1.11.53-.28,1.17-.43,1.93-.43.83,0,1.53.17,2.08.51.56.34.97.79,1.24,1.36.27.57.41,1.2.41,1.9v5.42Z"/>
  <path class="cls-2" d="m69.43,9.04h-5.77v-1.67h5.77v1.67Z"/>
</svg>