<?xml version="1.0" encoding="UTF-8"?>
<svg id="Layer_1" data-name="Layer 1" xmlns="http://www.w3.org/2000/svg" viewBox="0 0 30.16 9.3">
  <defs>
    <style>
      .cls-1 {
        fill: #231f20;
      }
    </style>
  </defs>
  <path class="cls-1" d="m5.36,9.29c-1.45,0-2.57-.28-3.36-.83-.79-.56-1.19-1.35-1.19-2.39v-.05h1.96v.14c0,.59.2,1,.59,1.22.39.22,1.06.33,2,.33.88,0,1.48-.09,1.8-.28.32-.19.48-.48.48-.88,0-.38-.12-.64-.37-.8s-.7-.28-1.35-.36l-2.47-.33c-.86-.11-1.53-.35-2.01-.73s-.72-.95-.72-1.71c0-.53.16-1,.47-1.41.31-.4.79-.72,1.41-.95C3.23.03,4.01-.08,4.93-.08s1.71.12,2.37.36c.66.24,1.17.6,1.52,1.09.36.48.53,1.08.53,1.8v.05h-1.94v-.11c0-.35-.07-.65-.22-.89-.15-.24-.4-.43-.77-.55-.37-.13-.88-.19-1.55-.19-.83,0-1.41.1-1.74.29-.33.19-.49.5-.49.92,0,.35.12.6.36.76.24.16.7.28,1.36.38l2.08.29c1.06.13,1.85.39,2.36.78s.76.96.76,1.71c0,.56-.17,1.04-.53,1.44-.35.41-.84.71-1.47.92-.63.21-1.37.32-2.21.32Z"/>
  <path class="cls-1" d="m14.41,9.28c-.97-.14-1.79-.45-2.47-.91-.68-.47-1.17-1.07-1.46-1.83-.3-.75-.38-1.62-.23-2.6.14-.93.46-1.72.96-2.35.5-.63,1.14-1.09,1.92-1.38.77-.28,1.65-.35,2.62-.21.92.13,1.71.42,2.36.85.65.43,1.13.99,1.42,1.67.3.68.38,1.48.25,2.39-.02.16-.05.3-.08.44-.03.14-.07.27-.11.4l-8.15-1.19.16-1.08,6.87,1-.6.59c.03-.12.05-.23.07-.35.02-.11.03-.23.05-.35.12-.83-.03-1.47-.44-1.94s-1.1-.78-2.06-.92c-1.07-.16-1.86-.02-2.39.4s-.86,1.1-.99,2.02l-.07.47c-.14.93-.01,1.68.37,2.23.38.56,1.11.91,2.19,1.07.93.14,1.63.09,2.08-.14.46-.23.72-.61.8-1.14l.02-.14,1.94.28-.02.16c-.09.63-.37,1.17-.83,1.59-.46.43-1.05.73-1.76.9-.71.17-1.51.19-2.4.06Z"/>
  <path class="cls-1" d="m24.45,9.3c-.85,0-1.55-.17-2.1-.51-.56-.34-.97-.79-1.25-1.36s-.42-1.2-.42-1.9V.11h1.94v4.9c0,.83.21,1.47.62,1.89.42.43,1.1.64,2.06.64,1,0,1.74-.25,2.2-.75.46-.5.7-1.24.7-2.22l.34-.02.11,1.78h-.42c-.08.51-.28.99-.58,1.43-.3.45-.72.82-1.24,1.11-.53.29-1.18.44-1.97.44Zm5.71-.18h-1.79v-2.83l-.16-.09V.11h1.96v9.01Z"/>
</svg>