<?xml version="1.0" encoding="UTF-8"?>
<svg id="Layer_2" data-name="Layer 2" xmlns="http://www.w3.org/2000/svg" viewBox="0 0 187.12 215.99">
  <defs>
    <style>
      .cls-1 {
        fill: none;
        stroke: #231f20;
        stroke-miterlimit: 10;
        stroke-width: 5px;
      }
    </style>
  </defs>
  <g id="Layer_1-2" data-name="Layer 1">
    <g>
      <path class="cls-1" d="m5.26,162.11c3.13-5.89,6-11.93,9.45-17.63,4.86-8.04,10.08-15.86,15.3-23.68,2.05-3.07,4.53-5.86,6.81-8.78.47-.47.93-.94,1.4-1.42,1.28-1.28,2.56-2.57,3.85-3.85.35-.35.71-.7,1.06-1.05.52-.36,1.07-.69,1.56-1.07,2.99-2.32,6.12-4.36,9.89-5.14,1.56-.32,3.15-.51,4.73-.77.44.31,2.51,3.1,2.78,3.78,1.01,2.47,2.04,4.93,3.07,7.4.11.24.22.47.33.71.35.81.71,1.63,1.06,2.44.24.33.48.67.73,1,.22.72.44,1.43.66,2.15.24.34.49.67.73,1.01l.43,1.44c.08.24.16.47.24.71.35.81.71,1.63,1.06,2.44.11.24.22.47.33.71.46,1.04.93,2.09,1.39,3.13.03.24.06.47.09.71,1.56,2.92,3.12,5.83,4.67,8.75.41.69.82,1.38,1.22,2.07.17.24.34.49.51.73.18.34.36.69.54,1.03,2.36,3.72,4.82,7.36,8.27,10.18,4.56,3.72,10.35,4.19,15.35,1.21,4.76-2.84,8.98-6.36,12.02-11.02,3.68-5.66,7.11-11.48,10.61-17.26,4.15-6.87,8.12-13.92,14.49-19.05,2.73-2.2,5.76-4.1,8.88-5.7,4-2.05,8.39-2.86,12.91-3.26,4.18-.37,8.32-.63,12.15,1.18,3.66,1.73,7.11,3.92,10.64,5.9.02,9.68.04,49.97.1,59.41,0,1.25-90.71,52.12-91.05,52.2-1.07-.48-85.84-49.13-88.29-50.64Z"/>
      <path class="cls-1" d="m59.32,98.73c-1.58.25-3.17.44-4.73.76-3.77.78-6.91,2.83-9.89,5.14-.5.39-1.04.72-1.56,1.07-.35.35-.71.7-1.06,1.05-1.28,1.28-5.33,4.24-5.24,5.26-2.28,2.92-4.76,5.71-6.81,8.78-5.22,7.81-10.43,15.64-15.3,23.68-3.45,5.7-6.32,11.74-9.45,17.63-.44-.15-2.71-1.11-2.71-1.57,0-18.19-.11-53.33,0-56.54.01-.32,3.92-7.78,5.22-11.3l.28-.29c.71-1.41,1.66-2.75,2.07-4.24.98-3.53,3.18-6.29,5.36-9.06.97-1.24,2.31-2.19,3.48-3.28.17-.2.35-.4.52-.6,2.82-2.78,6.82-3.1,10.14-4.84.21-.11.55.04.83.09,1.06.18,2.12.49,3.18.53,3.5.12,6.5,1.47,9.23,3.54.08.06.15.12.23.19.68.63,1.28,1.38,2.04,1.88,3.34,2.21,7.3,8.88,7.23,8.93.07.03.15.06.22.1.71.88,1.57,1.68,2.1,2.65.93,1.72,1.57,3.59,2.49,5.32.88,1.66,2.42,5,2.16,5.1Z"/>
      <path class="cls-1" d="m67.95,116.21c-.22-.72-.44-1.43-.66-2.15-.24-.33-1.44-2.62-1.79-3.44-.11-.24-.22-.47-.33-.71-1.02-2.47-2.06-4.93-3.07-7.4-.28-.67-2.05-2.83-2.24-3.2,0-.55,4.51,2.08,6.01,2.55.2.11.4.22.6.32,1.54,1.17,3.08,2.35,4.63,3.52l.73.61c2.68,2.3,5.24,4.78,8.08,6.86,3.53,2.58,7.1,5.26,11.02,7.13,4.44,2.12,9.31,3,14.38,2.24,4.91-.73,9.42-2.23,13.08-5.74.09-.19.18-.38.28-.58.04-.12.07-.23.11-.35.77-.58,1.54-1.15,2.31-1.73.16-.22.32-.44.48-.66.66-.83,1.33-1.66,1.99-2.49.14-.25.28-.51.43-.76.73-1.28,1.46-2.55,2.19-3.83.09-.09.17-.18.26-.26,1.73-3.36,3.36-6.77,5.2-10.06,2.32-4.15,4.56-8.39,7.29-12.27,3.55-5.04,8.65-7.76,14.86-8.21,7.94-.58,14.45,2.49,19.63,8.24,3.85,4.27,7.23,8.96,10.83,13.46.12.24.25.47.37.71-.03,1.04-.06,2.09-.1,3.13-3.54-1.99-6.98-4.18-10.64-5.9-3.83-1.81-7.97-1.55-12.15-1.18-4.52.4-8.91,1.2-12.91,3.26-3.12,1.6-6.15,3.5-8.88,5.7-6.37,5.13-10.33,12.18-14.49,19.05-3.49,5.78-6.92,11.6-10.61,17.26-3.03,4.66-7.25,8.18-12.02,11.02-5,2.98-10.79,2.52-15.35-1.21-3.46-2.82-8.63-10.87-8.81-11.21-.17-.24-.34-.49-.51-.73-.41-.69-5.79-11.4-5.99-11.53-.46-1.04-.93-2.09-1.39-3.13-.11-.24-1.04-2.34-1.39-3.15-.08-.24-.16-.47-.24-.71-.14-.48-.92-2.12-1.16-2.45Z"/>
      <path class="cls-1" d="m115.84,109.9c.97,1.99,1.94,3.99,2.92,5.98-.04.12-.08.23-.11.35-.09.19-.18.38-.28.58-3.66,3.51-8.16,5.01-13.08,5.74-5.06.75-9.93-.12-14.38-2.24-3.92-1.87-7.49-4.54-11.02-7.13-2.84-2.08-5.4-4.56-8.08-6.86-.24-.2-.49-.41-.73-.61-1.54-1.17-3.08-2.35-4.63-3.52,0-.23,0-.45,0-.68,2.93-5.34,5.73-10.76,8.85-15.98,1.17-1.95,2.97-3.59,4.71-5.09,5.74-4.95,13.48-4.38,18.93.76,4.17,3.93,7.06,8.75,9.59,13.81,2.41,4.81,4.68,9.69,7.02,14.54.09.12.18.24.26.36Z"/>
      <polygon class="cls-1" points="184.6 55.44 93.57 2.89 2.55 55.44 2.55 160.55 93.57 213.1 184.6 160.55 184.6 55.44"/>
    </g>
  </g>
</svg>