<?xml version="1.0" encoding="UTF-8"?>
<svg id="Layer_2" data-name="Layer 2" xmlns="http://www.w3.org/2000/svg" viewBox="0 0 184.57 208.24">
  <defs>
    <style>
      .cls-1 {
        fill: none;
        stroke: #231f20;
        stroke-miterlimit: 10;
        stroke-width: 5px;
      }
    </style>
  </defs>
  <g id="Layer_1-2" data-name="Layer 1">
    <g>
      <path class="cls-1" d="m95.07,62.26c-3.87,1.59-7.08,3.07-10.39,4.23-6.66,2.34-12.86,5.69-19.33,8.43-7.28,3.08-14.65,5.93-22.02,8.79-1.56.61-2.1,1.45-2,3.12.34,5.35.64,10.71.74,16.06.08,4.18-.06,4.13,3.97,4.13,23.71-.02,47.42.01,71.13-.08,2.55-.01,3.38.66,3.13,3.25-.75,7.97-1.38,15.96-1.87,23.95-.09,1.54-.68,1.99-1.94,2.37-7.11,2.11-14.2,4.26-21.28,6.44-1.17.36-2.42.59-3.49.18-6.92-2.6-14.24-3.79-21.27-6.01-1.96-.62-2.41-1.63-2.55-3.43-.32-4.14-.56-5.29-1.15-9.43-.28-2-1.19-2.15-2.74-2.13-4.96.05-9.92.02-14.87.02q-4.86,0-4.43,4.74c.81,8.99,1.73,14.97,2.37,23.98.14,2.01.85,2.74,2.64,3.25,13.81,3.96,27.6,7.99,41.39,12.04,1.42.42,2.69.32,4.09-.07,12.27-3.44,24.53-6.9,36.84-10.16,4.69-1.24,8.31-1.92,8.02-8.77-.38-8.97,1.46-18.03,2.23-27.07.54-6.39.68-12.82,1.44-19.17.24-2-.43-3.93-.09-5.61.52-2.58.93-5.16,1.39-7.75.45-2.54-.3-3.09-2.76-3.07-14.66.11-29.32.05-43.97.05-1.11,0-2.22,0-3.32,0,7.6-4.01,15.35-7.17,23.01-10.55,9.25-4.08,18.55-8.05,27.97-11.72,1.39-.54,1.46-1.59,1.53-2.84.31-5.75.39-11.51,1.17-17.23.27-2-.51-2.97-3-2.95-31.58.25-63.15.34-94.73.47-5.05.02-10.1,0-15.23,0,1.06,6.81,2.21,13.24,2.98,19.7.27,2.26,1.2,2.65,3.08,2.51,5.77-.43,11.65-.67,17.33-.48,10.21.34,20.41-.02,30.61.3,1.57.05,3.17-.31,5.37.51Z"/>
      <path class="cls-1" d="m181.83,2.5s-16.97,183-17.99,183.27c-19.97,5.3-67.49,18.31-71.19,19.85-6.39-1.46-74.17-23.6-74.17-23.6L2.73,2.5h179.1Z"/>
    </g>
  </g>
</svg>