<?xml version="1.0" encoding="UTF-8"?>
<svg id="Layer_2" data-name="Layer 2" xmlns="http://www.w3.org/2000/svg" viewBox="0 0 184.57 208.24">
  <defs>
    <style>
      .cls-1 {
        fill: none;
        stroke: #231f20;
        stroke-miterlimit: 10;
        stroke-width: 5px;
      }
    </style>
  </defs>
  <g id="Layer_1-2" data-name="Layer 1">
    <path class="cls-1" d="m181.83,2.5s-16.97,183-17.99,183.27c-19.97,5.3-67.49,18.31-71.19,19.85-6.39-1.46-74.17-23.6-74.17-23.6L2.73,2.5h179.1Zm-90.14,36.81c-12.85,0-25.71,0-38.56,0-4.93,0-9.86.09-14.78-.06-2.14-.07-2.91.61-2.57,2.7.13.83-.11,1.73.04,2.56,1.12,6.24,1.17,12.59,1.87,18.88.62,5.57.92,11.16,1.45,16.74.77,7.99,1.89,15.95,2.3,23.96.16,3.12,1.09,3.6,3.83,3.58,22.71-.09,45.41-.05,68.12-.04,1.27,0,2.57.26,3.79.28,2.17.05,2.44.97,2.22,2.72-.83,6.7-1.52,13.48-1.69,20.17-.11,4.51-1.64,6.72-5.44,7.37-6.5,1.11-12.59,3.59-18.96,5.08-1.03.24-2.01.11-3.09-.22-6.69-2.06-13.37-4.16-20.16-5.83-2.61-.64-3.38-1.57-3.43-4.22-.08-4.09-.92-5.17-1.2-9.26-.12-1.71-.88-1.82-2.23-1.81-5.57.05-11.14.02-16.71.02-3.82,0-4.18.34-3.61,4.24,1.27,8.58,1.86,14.22,2.65,22.84.22,2.47-.18,5.47,3.82,6.44,12.52,3.03,24.93,6.5,37.39,9.79,2.58.68,4.9,1.72,7.9.86,13.68-3.92,27.47-7.47,41.21-11.16,1.44-.39,2.07-1.04,2.23-2.79.52-5.48.85-10.96,1.26-16.45.7-9.47,1.73-18.92,2.54-28.38.5-5.91.74-11.84,1.3-17.74.4-4.22.16-4.66-4.12-4.66-24.53,0-49.05-.02-73.58.04-1.88,0-2.84-.31-3.07-2.41-.63-5.75-1.41-11.49-2.23-17.22-.35-2.43.53-2.96,2.93-2.95,26.56.1,53.12.06,79.69.06.75,0,1.5-.03,2.25,0,.92.04,1.39-.29,1.32-1.29-.41-6.38,1.63-12.57,1.36-18.97-.1-2.42-.65-2.95-3.02-2.94-17.67.11-35.34.06-53.02.06Z"/>
  </g>
</svg>