<?xml version="1.0" encoding="UTF-8"?>
<svg id="Layer_2" data-name="Layer 2" xmlns="http://www.w3.org/2000/svg" viewBox="0 0 187.57 187.57">
  <defs>
    <style>
      .cls-1 {
        fill: #231f20;
      }

      .cls-2 {
        fill: none;
        stroke: #231f20;
        stroke-miterlimit: 10;
        stroke-width: 5px;
      }
    </style>
  </defs>
  <g id="Layer_1-2" data-name="Layer 1">
    <g>
      <circle class="cls-2" cx="93.78" cy="93.78" r="91.28"/>
      <path class="cls-1" d="m141.25,167.07c-10.17-15.25-20.33-30.5-30.5-45.75-10.17-15.25-20.33-30.5-30.5-45.75-5.71-8.57-11.42-17.14-17.14-25.71-1.4-2.1-4.89-1.39-4.89,1.32v88.21c0,3.37,5.24,3.38,5.24,0V51.18l-4.89,1.32c10.17,15.25,20.33,30.5,30.5,45.75,10.17,15.25,20.33,30.5,30.5,45.75,5.71,8.57,11.42,17.14,17.14,25.71,1.86,2.79,6.41.17,4.53-2.65h0Z"/>
      <path class="cls-1" d="m128.11,136.32V51.52c0-3.84-5.24-3.85-5.24,0v76.93c1.75,2.62,3.5,5.24,5.24,7.87Z"/>
    </g>
  </g>
</svg>