<?xml version="1.0" encoding="UTF-8"?>
<svg id="Layer_2" data-name="Layer 2" xmlns="http://www.w3.org/2000/svg" viewBox="0 0 163.19 187.56">
  <defs>
    <style>
      .cls-1 {
        fill: #231f20;
      }
    </style>
  </defs>
  <g id="Layer_1-2" data-name="Layer 1">
    <g>
      <path class="cls-1" d="m51.72,170.72c9.53,5.5,19.05,11,28.58,16.5.78.45,1.74.45,2.52,0,20.52-11.85,41.04-23.69,61.56-35.54,5.83-3.37,11.66-6.73,17.5-10.1.76-.44,1.24-1.28,1.24-2.16V59.1c0-3.6.16-7.25,0-10.85-.08-1.69-1.15-2.22-2.35-2.91l-4.82-2.78c-5.96-3.44-11.91-6.88-17.87-10.32-7.61-4.39-15.22-8.79-22.83-13.18-6.88-3.97-13.75-7.94-20.63-11.91-3.75-2.17-7.5-4.33-11.25-6.5-.18-.1-.36-.21-.54-.31-.78-.45-1.74-.45-2.52,0-3.12,1.8-6.23,3.6-9.35,5.4-7.27,4.2-14.53,8.39-21.8,12.59-8.3,4.79-16.6,9.59-24.9,14.38-6.22,3.59-12.44,7.18-18.66,10.77-1.35.78-2.74,1.53-4.07,2.35S0,47.84,0,49.24v88.66c0,.46-.02.92,0,1.37.09,2.22,2.66,3.14,4.31,4.22,5.89,3.85,11.51,8.15,17.73,11.48,2.65,1.42,5.48,2.74,8.45,3.34,1.32.26,2.7-.38,3.08-1.75.34-1.23-.42-2.81-1.75-3.08-5.18-1.03-9.89-4.2-14.26-7.06-4.61-3.02-9.02-6.38-13.79-9.15l1.24,2.16V51.9c0-1.18.11-2.42,0-3.6,0-.05,0-.11,0-.16l-1.24,2.16c2.62-1.51,5.24-3.03,7.86-4.54,6.3-3.63,12.59-7.27,18.89-10.9l22.85-13.19c6.58-3.8,13.16-7.6,19.74-11.4l6.46-3.73c1.02-.59,2.15-1.11,3.11-1.8.04-.03.1-.05.14-.08h-2.52c2.62,1.51,5.24,3.03,7.86,4.54,6.3,3.63,12.59,7.27,18.89,10.9,7.62,4.4,15.23,8.79,22.85,13.19l19.74,11.4,6.46,3.73c1.02.59,2.04,1.31,3.11,1.8.05.02.1.05.14.08l-1.24-2.16v87.52c0,1.18-.11,2.42,0,3.6,0,.05,0,.11,0,.16l1.24-2.16c-20.52,11.85-41.04,23.69-61.56,35.54-5.83,3.37-11.66,6.73-17.5,10.1h2.52c-9.53-5.5-19.05-11-28.58-16.5-2.79-1.61-5.31,2.71-2.52,4.32h0Z"/>
      <path class="cls-1" d="m30.49,158.3c5.04,1.02,10.57.7,15.19-1.71,2.75-1.43,4.67-3.73,6.1-6.42.97-1.82,1.43-3.78,1.71-5.8.67-4.81.7-9.7.71-14.55.03-19.13-.09-38.27-.17-57.4-.02-4.87-.04-9.75-.06-14.62-.02-3.22-5.02-3.22-5,0,.06,12.33.11,24.67.15,37,.03,9.68.06,19.36.08,29.05,0,5.04.07,10.09-.2,15.13-.05.91-.11,1.83-.19,2.74-.03.39-.07.77-.12,1.15-.02.14-.03.28-.05.43-.06.47.07-.4-.04.31-.16,1.02-.35,2.03-.68,3.01-.06.19-.14.37-.2.56-.13.43.31-.61,0-.01-.16.31-.32.62-.49.93-.57.99-1.11,1.93-1.9,2.69-3.32,3.2-9.21,3.56-13.5,2.69-1.32-.27-2.7.38-3.08,1.75-.34,1.23.42,2.81,1.75,3.08h0Z"/>
      <path class="cls-1" d="m131.84,78.11c-2.92-7-7.69-13.19-14.33-17.04-7.83-4.54-17.68-5.62-26.35-3.07-7.15,2.1-13.98,7.1-17.01,14.09-1.79,4.13-1.8,8.78.7,12.63,2,3.08,5.05,5.36,8.27,7.04,2.24,1.17,4.67,2.25,7.13,2.87,3.71.94,7.66,1.05,11.45,1.41,2.6.25,5.2.5,7.8.78,1.81.2,4.1.46,5.61.67,2.52.34,5.06.71,7.51,1.39.4.11.8.23,1.19.37.15.05.31.12.46.17.58.2-.49-.26.03.01s.98.59,1.47.87c-.77-.43-.12-.09.13.15.18.17.35.35.51.53,1.32,1.46,2.05,3.36,2.42,5.27.21,1.06.28,2.52.18,3.83-.01.16-.03.32-.05.48.06-.55-.14.67-.18.87-.22.92-.52,1.8-.95,2.63-.84,1.62-1.96,3.01-3.28,4.26-1.22,1.15-2.1,1.81-3.49,2.72-3.61,2.37-7.5,4-11.8,4.58-3.97.53-8.21.2-11.96-.37-3.97-.61-8.07-1.17-11.81-2.7-4.35-1.78-7.68-5.05-9.69-9.28-.79-1.67-1.28-3.5-1.62-5.32-.25-1.33-1.85-2.08-3.08-1.75-1.39.38-2,1.74-1.75,3.08.86,4.59,2.92,8.93,6.11,12.36s7.57,5.65,12.13,6.85c3.81,1.01,7.79,1.58,11.7,2.04,4.46.53,8.98.49,13.38-.46s8.15-2.79,11.69-5.24c3.12-2.16,6.03-4.84,7.79-8.25,3.16-6.13,2.45-14.69-2.65-19.62-2.54-2.45-6.18-3.19-9.55-3.77-8.51-1.47-17.14-1.87-25.7-2.89-.84-.1.25.04-.22-.03-.16-.02-.31-.05-.47-.07-.33-.05-.66-.11-.98-.17-.6-.12-1.2-.27-1.79-.44s-1.15-.38-1.72-.6c-.18-.07-.36-.14-.54-.21s-.94-.39-.4-.16c-2.86-1.22-5.61-2.72-7.7-4.87-2.47-2.53-3.32-5.89-1.85-9.42,1.17-2.8,3.07-4.98,5.35-6.98,6.09-5.34,15.26-6.73,22.99-5.04s14.66,6.95,18.63,14.17c.34.61.65,1.23.95,1.86.11.24.23.48.34.73.05.11.1.23.15.34.25.56-.21-.51,0,.02.52,1.25,1.66,2.14,3.08,1.75,1.18-.32,2.27-1.82,1.75-3.08h0Z"/>
    </g>
  </g>
</svg>