<?xml version="1.0" encoding="UTF-8"?>
<svg id="Layer_2" data-name="Layer 2" xmlns="http://www.w3.org/2000/svg" viewBox="0 0 203.89 79.4">
  <defs>
    <style>
      .cls-1 {
        fill: none;
        stroke: #231f20;
        stroke-miterlimit: 10;
        stroke-width: 4px;
      }
    </style>
  </defs>
  <g id="Layer_1-2" data-name="Layer 1">
    <g>
      <g>
        <polygon class="cls-1" points="179.39 11.74 177.33 11.74 170.5 11.74 158.2 11.74 145.12 11.74 136.06 11.74 123.31 11.74 123.31 55.07 145.12 55.07 145.12 24.04 158.2 24.04 158.2 55.07 170.5 55.07 170.5 24.04 177.33 24.04 177.33 55.07 189.64 55.07 189.64 11.74 179.39 11.74"/>
        <polygon class="cls-1" points="46.16 11.74 35.89 11.74 14.22 11.74 13.13 11.74 13.13 56.14 35.89 56.14 35.89 24.04 46.16 24.04 46.16 55.07 58.46 55.07 58.46 11.74 57.55 11.74 46.16 11.74"/>
        <path class="cls-1" d="m100.12,11.74h-31.96v54.47h22.47v-10.85h21.67v-.28h.12V11.74h-12.3Zm-9.48,12.3h9.48v19h-9.48v-19Z"/>
      </g>
      <polygon class="cls-1" points="201.89 2 2 2 2 66.82 57.49 66.82 57.49 77.4 101.94 77.4 101.94 66.82 201.89 66.82 201.89 2"/>
    </g>
  </g>
</svg>