<?xml version="1.0" encoding="UTF-8"?>
<svg id="Layer_2" data-name="Layer 2" xmlns="http://www.w3.org/2000/svg" viewBox="0 0 411.72 146.99">
  <defs>
    <style>
      .cls-1 {
        fill: none;
        stroke: #231f20;
        stroke-miterlimit: 10;
        stroke-width: 4px;
      }
    </style>
  </defs>
  <g id="Layer_1-2" data-name="Layer 1">
    <g id="WMPgKi.tif">
      <g>
        <path class="cls-1" d="m130.16,2c.55,1.57,1.1,3.14,1.65,4.72.17.48.31.97.5,1.55-.31,0-.57,0-.83,0-1.77.05-3.55.08-5.32.17-1.26.07-2.51.24-3.81.37-.69-2.11-1.36-4.13-2.03-6.17,2.05-.17,4.05-.34,6.04-.5.28-.05.55-.09.83-.14.99,0,1.98,0,2.97,0Z"/>
        <path class="cls-1" d="m89.37,132.27q.21,1.26.2,2.3c-.03,4.08-.23,5.84.03,7.86.16,1.24-.83,2.33-2.08,2.32-25.32-.09-54.29-1.14-77.37-1.6.92.02,1.15-3.25.74-4.49.65-.43.39-.56.27-1.12.53-.44.4-1.7.49-1.97,1.42-4.85,3.23-10.16,3.69-14.52,3.33-5.71,3.64-13.25,6.97-17.34.1-.45.2-.84-.39-.96-.38-.24,2.19-.44.49-1.15.14-1.66,1.71,1.22.66-1.81,3.46-4,7.43-14.81,9.53-18.15.88.38.28-.52.64-.83.76.07.69-.35.51-.84.62.03.92-.18.47-.81.74-1.64,2.36-2.38,2.52-4.12,4.47-5.68,16.4-20.34,19.78-24.07,9.67-10.69,14.79-14.65,25.75-21.95,2.45-2.34,6.66-3.51,8.78-5.74,1.75-.01,6-3.24,6.92-3.46,1.54-.37,5.05-2.19,6.44-2.65,1.81-.37,4.41-1.5,6.8-1.68,1.62-1.17,3.08-.84,4.43-1.57,4.65-.06,7.49-1.14,12.54-1.48,2.85-.19,6.38.35,9.36,0,8.65-1.01,11.51,2.28,19.68,2.96,8.94,2.86,18.26,5.35,25.66,9.45,3.11.57,6.58,2.59,9.15,4.48.53-.61,1.8.37,1.87,1.02,3.66.58,5.66,4.16,9.7,5.11,4.15,3.29,42.05,26.28,27.71,27.06-9.73-7.64-20.71-13.68-31.94-18.64-37.86-18.37-88.82-4.51-104.01,38.6-6.83,16.3-7.07,33.71-5.98,49.79Z"/>
        <path class="cls-1" d="m133.87,144.99c-.05-.33-.08-.66-.08-1,0-23.7,0-47.39,0-71.09,0-.33-.02-.66-.03-.99.25-.05.5-.16.75-.16,12.7,0,25.39-.01,38.09,0,.76,0,1.52.12,2.28.18.15.09.29.18.44.27.51.08,1.03.15,1.54.23.12.1.24.19.36.29.77.24,1.53.48,2.3.72.24.1.48.19.72.29.53.27,1.05.54,1.58.81.05.04.1.08.15.11,4.95,2.45,8.5,6.23,10.77,11.23,1.05,2.31,1.54,4.77,1.77,7.29.12,1.27.33,2.53.3,3.8-.04,1.92-.05,3.85-.39,5.75-.04.21-.13,1-.24,1.17-.5,2.69-1.25,5.3-2.61,7.71-2.41,4.3-5.88,7.38-10.49,9.13-1.35.51-2.76.85-4.08,1.24.88.93,1.81,1.93,2.77,2.89,4.88,4.9,9.77,9.8,14.66,14.69.06.06.13.09.2.14.56.56,1.11,1.13,1.67,1.69,1.09,1.15,2.18,2.29,3.38,3.57h-.92c-9.19,0-18.37,0-27.56.01-.5,0-.86-.12-1.21-.49-2.08-2.18-4.2-4.33-6.29-6.49-1.5-1.55-3-3.11-4.51-4.66-1.77-1.83-3.53-3.66-5.29-5.5-.1-.16-.41-.04-.37.14,0,5.63,0,11.26,0,16.99h-.95c-5.91,0-17.53.02-18.73.03Zm19.7-38.12h.94c4.51,0,9.02-.04,13.53.03,1.15.02,2.02-.36,2.81-1.09.3-.28.6-.57.85-.89,1.96-2.47,2.31-5.34,1.92-8.34-.3-2.34-1.25-4.39-3.22-5.79-.52-.37-1.25-.62-1.88-.62-4.7-.05-9.4-.03-14.1-.03-.27,0-.54,0-.85,0v16.74Z"/>
        <path class="cls-1" d="m262.7,91.71c0,.33-.02.66-.02.99,0,17.04,0,34.08,0,51.12,0,.33-.02.66-.03.99-.05.04-.09.09-.14.13-6.34,0-12.68.01-19.01.02-.05,0-.1-.03-.25-.08,0-.26,0-.55,0-.85-.01-3.92-.03-7.84-.04-11.76-.05-.04-.11-.08-.16-.13h-18.64v12.66l-.17.13h-19.64s-.1-.09-.14-.13c-.01-.33-.03-.66-.03-.99,0-17.02,0-34.03,0-51.05,0-.63.02-1.25.03-1.88.04-.11.08-.22.12-.34,0-.44-.07-.9.03-1.32.43-1.76,2.28-7.2,2.78-7.98,2.09-3.25,4.21-5.56,8.06-7.31,1.31-.59,2.79-.81,4.19-1.2.05-.01.12.01.16-.01,1.35-.68,2.81-.45,4.22-.45,6.89-.03,13.79-.01,20.68.07,1.22.01,2.44.4,3.66.66.67.14,1.31.38,1.96.58.17.05.33.09.5.14.92.14,1.51.95,2.52,1.08.68.09,1.27.9,1.9,1.39.06.04.13.08.19.12,1.75,1.39,3.39,2.87,4.49,4.87.36.66,1,1.19,1.26,1.87.41,1.09.61,2.26.92,3.39.09.32.35.6.41.92.1.53.12,1.07.14,1.61.04.85.05,1.7.07,2.55,0,.06,0,.11,0,.17Zm-19.97.66c-.22-.93-.88-1.56-1.69-1.91-.9-.39-1.9-.74-2.86-.76-3.02-.08-6.05-.07-9.06.07-1.01.05-2.08.47-2.98.97-1.48.83-1.81,2.29-1.8,3.91.04,5.28.01,10.55.01,15.83,0,.29,0,.58,0,.84h18.81c0-.97,0-1.9,0-2.83-.03-5.1-.07-10.2-.11-15.31l-.14-.32c-.02-.11-.03-.22-.05-.33-.04-.05-.09-.11-.13-.16Z"/>
        <path class="cls-1" d="m368.94,73.28c1.19-.27,2.37-.61,3.57-.78,1.13-.17,2.29-.22,3.43-.23,10.01-.02,20.02,0,30.03,0h.96v18.67h-33.09v8.66c.28,0,.57,0,.85,0,5.47,0,10.95-.14,16.41.05,6.57.23,11.81,3.14,15.55,8.6,2.04,2.97,2.85,6.34,2.98,9.88.1,2.55.1,5.11,0,7.66-.05,1.48-.4,2.95-.58,4.43-.08.68-1.52,4.74-1.84,5.24-1.75,2.75-4.06,4.95-6.76,6.72-.97.63-2.13.98-3.2,1.45-2.36,1.06-4.85,1.34-7.41,1.34-10.64-.02-21.28,0-31.92,0h-.96v-18.62h33.93v-9.07h-5.96c-.28,0-.55,0-.83,0-3.35,0-6.7.04-10.05-.04-1.21-.03-2.46-.2-3.62-.57-2.71-.85-5.35-1.88-7.59-3.73-1.73-1.44-3.33-2.98-4.39-5.01-.27-.51-.53-1.03-.79-1.54-.1-.11-.19-.23-.29-.34-.02-.05-.05-.11-.07-.16-.14-.16-.28-.33-.42-.49-.23-.82-.47-1.64-.68-2.47-.12-.48-.29-.97-.29-1.45-.02-3.95-.09-7.9.03-11.84.04-1.4.51-2.8.89-4.18.27-.99.65-1.96,1.08-2.89.29-.61.82-1.09,1.15-1.68,1.16-2.03,2.99-3.43,4.68-4.94.61-.54,1.46-.82,2.2-1.22.06-.03,2.74-1.31,3-1.44Z"/>
        <path class="cls-1" d="m321.9,72.41c.03.32.08.65.08.97,0,17.13,0,34.26,0,51.39,0,.35.04.71.06,1.06.2.11.4.32.6.32,9.11.01,18.21,0,27.32,0,.03.21.09.42.09.64,0,5.82,0,11.65,0,17.47,0,.21-.03.43-.05.66h-48.79v-72.64c6.91,0,13.72,0,20.53,0,.05.04.11.09.16.13Z"/>
        <path class="cls-1" d="m271.77,144.8v-72.36c.14-.1.18-.16.23-.16,6.85,0,13.69,0,20.54,0,.04.04.09.09.13.13,0,.25.03.49.03.74,0,23.64,0,47.27,0,70.91,0,.25-.02.49-.03.74-.04.04-.09.08-.13.13-4.3,0-8.6.03-12.9.03-2.58,0-5.15-.02-7.73-.03-.04-.04-.09-.09-.13-.13Z"/>
        <path class="cls-1" d="m19.69,95.47c-1.02,2.4-2.01,4.71-2.98,7.02-.6,1.44-1.18,2.89-1.76,4.33-.38.93-1.36,1.18-2.21.55-.14-.1-.27-.24-.43-.28-.89-.27-1.9-.35-2.64-.83-.68-.44-1.55-.24-2.13-.88-.2-.21-.67-.17-1.02-.25-.17-.04-.36-.07-.51-.16-.26-.14-.49-.37-.76-.48-.82-.32-1.65-.61-2.6-.94,1.04-2.51,2.03-4.87,2.98-7.25.13-.34.06-.75.14-1.11.05-.24.26-.43.34-.67.29-.95.75-1.8,1.34-2.6.18-.25.09-.69.13-1.1,4.07,1.56,8.03,3.08,12.11,4.64Z"/>
        <path class="cls-1" d="m107.82,141.79c-4.25-1.52-8.31-2.97-12.44-4.44-.12-.98-.1-2.03-.41-2.98-.35-1.05-.25-2.08-.32-3.13-.04-.54-.3-2.19-.31-2.48-.03-1.09-.1-2.18-.15-3.26-.01-.3,0-.6,0-1.07.99.35,1.88.64,2.76.96,2.64.97,5.29,1.93,7.92,2.93.23.09.48.42.52.67.62,3.33,1.19,6.66,1.8,9.99.16.88.4,1.76.64,2.81Z"/>
        <path class="cls-1" d="m104.01,104.94c-2.84-2.25-5.59-4.43-8.45-6.69,1.01-3.71,2.02-7.45,3.05-11.27,1.5,1.05,4.1,2.95,4.08,2.96.45.42,2.65,1.9,3.22,2.32.22.16.33.63.29.93-.1.85-.28,1.69-.48,2.52-.14.57-.82,4.02-.99,5.18-.14.91-.35,1.82-.52,2.73-.07.37-.12.74-.21,1.31Z"/>
        <path class="cls-1" d="m35.65,50.57c2.66-2.37,5.32-4.74,8.03-7.15,2.19,1.91,4.58,4,6.99,6.09-2.32,2.7-4.61,5.37-6.98,8.12-2.59-2.22-5.19-4.44-7.79-6.66-.08-.13-.17-.26-.25-.4Z"/>
        <path class="cls-1" d="m116.93,58.22c1.62,2.47,3.14,4.8,4.65,7.1-2.04,2.45-4.06,4.89-6.09,7.33-1.61-2.41-3.27-4.9-5.01-7.52,2.11-2.26,4.23-4.52,6.45-6.91Z"/>
        <path class="cls-1" d="m89.61,19.04c-.9.53-1.67,1-2.45,1.44-1.28.72-2.58,1.41-3.86,2.13-.43.24-.82.54-1.24.8-.46.29-.66.06-.91-.36-1.37-2.23-2.78-4.43-4.22-6.7,1.21-.69,2.47-1.4,3.72-2.13,1.15-.67,2.29-1.36,3.44-2.03.5-.29.89-.18,1.21.33.96,1.51,1.95,3.02,2.93,4.52.45.69.93,1.35,1.38,2Z"/>
        <path class="cls-1" d="m136.09,45.9c3.06-1.06,6.07-2.1,9.15-3.17.79,2.36,1.53,4.57,2.26,6.75-2.99,1.24-5.94,2.46-8.95,3.72-.79-2.33-1.6-4.76-2.46-7.3Z"/>
        <path class="cls-1" d="m169.07,14.89c.14-2.28.27-4.5.41-6.85,1.7.54,3.35,1.02,4.98,1.6,1.47.52,2.9,1.14,4.35,1.69.53.2.74.5.7,1.09-.15,1.84-.23,3.69-.34,5.53,0,.16-.04.32-.07.61-3.34-1.23-6.64-2.43-10.03-3.68Z"/>
        <path class="cls-1" d="m168.82,46.78c.16-2.01.31-3.98.5-5.94.04-.42.91-.75,1.29-.57.07.03.13.09.2.13.43.26,2.53.29,2.96.27,1.89.34,3.78.69,5.73,1.04-.05.65-.23,1.31-.13,1.93.22,1.4-.43,2.74-.22,4.13.07.43-.16.45-.59.37-2.02-.36-4.05-.66-6.09-.95-1.12-.16-2.26-.26-3.64-.41Z"/>
        <path class="cls-1" d="m384.12,117.28c.28,0,.55,0,.83,0-.28,0-.55,0-.83,0Z"/>
        <path class="cls-1" d="m368.94,73.28c-.26.13-.52.27-.78.4.26-.13.52-.27.78-.4Z"/>
        <path class="cls-1" d="m356.9,105.38c.14.16.28.33.42.49-.14-.16-.28-.33-.42-.49Z"/>
        <path class="cls-1" d="m175.32,72.21c-.15-.09-.29-.18-.44-.27.15.09.29.18.44.27Z"/>
        <path class="cls-1" d="m250.8,73.73c-.17-.05-.33-.09-.5-.14.17.05.33.09.5.14Z"/>
        <path class="cls-1" d="m204.56,90.55c-.04.11-.08.22-.12.34.04-.11.08-.22.12-.34Z"/>
        <path class="cls-1" d="m357.39,106.04c.1.11.19.23.29.34-.1-.11-.19-.23-.29-.34Z"/>
        <path class="cls-1" d="m292.54,144.93s.09-.08.13-.13c-.04.04-.09.08-.13.13Z"/>
        <path class="cls-1" d="m292.67,72.41l-.13-.13.13.13Z"/>
        <path class="cls-1" d="m243.03,132.14c.05.04.11.08.16.13-.05-.04-.11-.08-.16-.13Z"/>
        <path class="cls-1" d="m321.9,72.41c-.05-.04-.11-.09-.16-.13.05.04.11.09.16.13Z"/>
        <path class="cls-1" d="m181.97,74.66c-.05-.04-.1-.08-.15-.11.05.04.1.08.15.11Z"/>
        <path class="cls-1" d="m255.41,76.32c-.06-.04-.13-.08-.19-.12.06.04.13.08.19.12Z"/>
        <path class="cls-1" d="m204.44,144.8s.09.09.14.13c-.05-.04-.09-.09-.14-.13Z"/>
        <path class="cls-1" d="m224.22,144.93l.17-.13-.17.13Z"/>
        <path class="cls-1" d="m262.51,144.93s.09-.09.14-.13c-.05.04-.09.09-.14.13Z"/>
        <path class="cls-1" d="m271.77,144.8s.09.09.13.13c-.04-.04-.09-.09-.13-.13Z"/>
        <path class="cls-1" d="m243.06,93.18c-.05-.11-.09-.22-.14-.32.05.11.09.22.14.32Z"/>
        <path class="cls-1" d="m242.87,92.53c-.04-.05-.09-.11-.13-.16.04.05.09.11.13.16Z"/>
      </g>
    </g>
  </g>
</svg>