<?xml version="1.0" encoding="UTF-8"?>
<svg id="Layer_2" data-name="Layer 2" xmlns="http://www.w3.org/2000/svg" viewBox="0 0 156.23 154.68">
  <defs>
    <style>
      .cls-1 {
        fill: #231f20;
      }
    </style>
  </defs>
  <g id="Layer_1-2" data-name="Layer 1">
    <g>
      <path class="cls-1" d="m26.24,49.72c-3.22,5.39-6.44,10.77-9.65,16.16-1.38,2.32-2.87,4.6-4.16,6.97-.47.86-.55,1.88-.74,2.82l-3.78,18.58c-1.65,8.13-3.31,16.26-4.96,24.38-.95,4.68-1.99,9.34-2.85,14.03-.01.07-.03.15-.05.22-.18.89.25,2.16,1.31,2.31,9.01,1.25,18.02,2.59,27.04,3.74,7.02.9,14.04,1.76,21.06,2.64,13.73,1.72,27.46,3.44,41.19,5.16,13.79,1.73,27.57,3.46,41.36,5.19l14.5,1.82c2.34.29,4.7.71,7.06.88.1,0,.21.03.31.04,1.01.13,1.87-.96,1.88-1.88.02-5.84.04-11.68.05-17.52.04-13.22.08-26.44.12-39.66.04-14.15.09-28.29.13-42.44l.08-25.78c0-2.02-.41-3.78-.84-5.78-1.36-6.27-2.72-12.53-4.08-18.8l-.31-1.44c-.16-.75-1.03-1.44-1.81-1.38-8.3.64-16.61,1.28-24.91,1.93l-32.78,2.53c-.68.05-1.37.09-2.05.16-1.15.12-2.27,1.03-3.24,1.6l-14.42,8.44-15.07,8.82c-1.03.6-2.11,1.16-3.11,1.82-.81.54-1.5,1.28-2.22,1.93l-24.12,21.54-.65.58c-1.8,1.61.86,4.26,2.65,2.65,8.19-7.31,16.38-14.63,24.57-21.94.56-.5,1.12-.99,1.68-1.5.68-.62-.35.12.12-.1,1.46-.69,2.84-1.66,4.24-2.48,5.88-3.44,11.77-6.88,17.65-10.33,4.29-2.51,8.59-5.02,12.88-7.54l-.95.26c6.73-.52,13.46-1.04,20.2-1.56,10.73-.83,21.45-1.66,32.18-2.49,2.46-.19,4.91-.38,7.37-.57l-1.81-1.38c1.13,5.21,2.26,10.42,3.39,15.62l1.65,7.59c.03.12.04.48.13.58,0,0,.03-.65-.06-.4-.06.15,0,.43,0,.59l-.07,22.73c-.04,13.8-.09,27.61-.13,41.41l-.13,40.87-.04,14.2c0,2.28-.18,4.64-.02,6.91,0,.1,0,.21,0,.31l1.88-1.88c-5.92-.74-11.85-1.49-17.77-2.23l-39.76-4.99c-14.11-1.77-28.22-3.54-42.33-5.31l-24.69-3.1c-.3-.04-1.81-.31-.69-.08-1.85-.38-3.78-.52-5.66-.78l-19.27-2.67-1.36-.19,1.31,2.31,2.34-11.48c1.62-7.98,3.25-15.97,4.87-23.95,1.37-6.73,2.74-13.47,4.11-20.2l.53-2.6c.02-.12.32-1.05.23-1.15.08.09-.37.62-.06.21.22-.29.38-.64.57-.95l2.17-3.63c3.6-6.03,7.31-12.02,10.82-18.1.08-.14.17-.28.25-.42,1.24-2.08-2-3.96-3.24-1.89Z"/>
      <path class="cls-1" d="m156.08,25.2c-1.51-6.95-3.01-13.9-4.52-20.84-.22-.99-.43-1.99-.65-2.98s-1.36-1.53-2.31-1.31c-5.26,1.24-10.53,2.47-15.79,3.71l-25.05,5.88c-1.93.45-3.87.91-5.8,1.36-1.8.42-1.77,3.18,0,3.62,5.8,1.44,11.6,2.88,17.4,4.32l27.48,6.83c2.13.53,4.26,1.06,6.4,1.59l-1.12-.86.08.11.29-2.27c.52-.57,1.03-.39.3-.31-.41.04-.83.12-1.24.19l-4.55.68-14.7,2.21c-11.13,1.67-22.25,3.34-33.38,5.01-2.56.38-5.13.77-7.69,1.15-.93.14-1.65,1.45-1.31,2.31,2.34,5.88,4.68,11.76,7.01,17.64,3.73,9.37,7.45,18.74,11.18,28.1.85,2.15,1.71,4.3,2.56,6.44l2.31-2.31c-6.41-2.17-12.82-4.33-19.23-6.5-10.27-3.47-20.53-6.93-30.8-10.4-2.35-.79-4.7-1.59-7.05-2.38-.93-.31-2.09.36-2.31,1.31-1.57,6.9-3.15,13.81-4.72,20.71-2.51,11-5.01,22-7.52,33.01l-1.25,5.47-.35,1.56c-.03.13-.08.26-.09.39-.03.4-.46.11.32-.57l2.27-.29-.14-.09.86,1.12c-2.05-5.12-4.11-10.23-6.16-15.35l-9.83-24.49c-.76-1.88-1.51-3.77-2.27-5.65l-.86,2.12c6.97-3.39,13.93-6.78,20.9-10.17l10.57-5.14c1.31-.64,2.22-1.54,3.31-2.52,6.79-6.15,13.58-12.31,20.38-18.46l10.14-9.19,2.98-2.7c.43-.39.93-.75,1.23-1.25.61-1,1.05-2.17,1.56-3.23l3.09-6.41,5.73-11.87.34-.71c.41-.86.3-2.1-.67-2.57-3.89-1.88-7.78-3.76-11.67-5.64-1.22-.59-2.28-1.25-3.6-.52-1.08.6-2.13,1.25-3.19,1.87-8.91,5.22-17.83,10.43-26.74,15.65-1.76,1.03-3.8,1.93-5.35,3.28-2.85,2.48-5.64,5.03-8.45,7.55l-12.46,11.13-4.19,3.75c-.55.49-1.15.94-1.56,1.56-2.21,3.35-4.14,6.92-6.19,10.37l-7.24,12.12-.42.71c-.44.74-.27,1.66.29,2.27,2.99,3.28,5.98,6.55,8.97,9.83l-.29-2.27c-2.37,5.59-4.75,11.18-7.12,16.77-3.78,8.9-7.56,17.81-11.35,26.71l-2.59,6.1c-.4.94-.27,2,.67,2.57.78.47,2.17.26,2.57-.67l7.12-16.77,11.35-26.71,2.59-6.1c.35-.81.32-1.6-.29-2.27-2.99-3.28-5.98-6.55-8.97-9.83l.29,2.27c3.86-6.46,7.72-12.92,11.58-19.38.71-1.19,1.45-2.36,2.13-3.57.37-.64.06.02-.05,0,.08.02.51-.45.56-.5l7.6-6.79c6.02-5.37,12.11-10.67,18.05-16.12.52-.48.19.02-.05,0,.11,0,.39-.23.48-.28l2.93-1.71,11.05-6.46,12.54-7.34c2.5-1.46,5.13-2.81,7.55-4.42.12-.08.26-.15.38-.22h-1.89c4.36,2.11,8.72,4.22,13.09,6.33l-.67-2.57c-3.4,7.05-6.81,14.11-10.21,21.16-.06.13-.57.91-.51,1.05-.05-.11.5-.48.06-.15-.73.56-1.39,1.26-2.07,1.88-2.98,2.7-5.96,5.4-8.93,8.09l-21.57,19.54-2.81,2.54c-.21.19-.45.37-.64.58-.27.29.55-.22.15-.14-.92.17-2.01.98-2.84,1.38l-5.48,2.67c-7.84,3.82-15.68,7.63-23.52,11.45l-.5.25c-.67.33-1.15,1.4-.86,2.12,2.1,5.23,4.19,10.45,6.29,15.68,3.29,8.21,6.59,16.42,9.88,24.63l1.59,3.95c.36.9.63,1.9,1.49,2.44.75.46,1.65.25,2.27-.29.67-.58.75-1.56.93-2.37l.98-4.31,3.33-14.62,7.56-33.19c.59-2.58,1.17-5.16,1.76-7.73l-2.31,1.31c6.41,2.17,12.82,4.33,19.23,6.5l30.8,10.4c2.35.79,4.7,1.59,7.05,2.38,1.27.43,2.83-.99,2.31-2.31-2.34-5.88-4.68-11.76-7.01-17.64-3.73-9.37-7.45-18.74-11.18-28.1-.85-2.15-1.71-4.3-2.56-6.44l-1.31,2.31c7.09-1.06,14.19-2.13,21.28-3.19,11.15-1.67,22.3-3.35,33.45-5.02l5.42-.81c.93-.14,2.09-.11,2.78-.87.51-.56.8-1.59.29-2.27-.67-.9-1.33-1.01-2.3-1.25l-3.58-.89-12.04-2.99-28.09-6.98c-2.16-.54-4.32-1.07-6.48-1.61v3.62c5.26-1.24,10.53-2.47,15.79-3.71,8.35-1.96,16.7-3.92,25.05-5.88,1.93-.45,3.87-.91,5.8-1.36l-2.31-1.31c1.51,6.95,3.01,13.9,4.52,20.84.22.99.43,1.99.65,2.98.51,2.36,4.13,1.36,3.62-1h0Z"/>
      <path class="cls-1" d="m114.09,88.22c4.69-6.91,9.39-13.82,14.08-20.74,7.45-10.97,14.9-21.94,22.35-32.92,1.71-2.52,3.42-5.04,5.13-7.56l-1.12.86.15-.05-2.12-.86.09.13-.26-.95c-.01,4.21-.03,8.41-.04,12.62l-.09,30.29c-.04,12.17-.08,24.34-.11,36.51l-.1,31.67-.03,10.4c0,1.62-.18,3.35-.02,4.96,0,.07,0,.14,0,.21l3.49-.95c-4.67-7.39-9.34-14.78-14.01-22.18-7.44-11.77-14.87-23.54-22.31-35.3-1.69-2.68-3.39-5.36-5.08-8.04-1.29-2.03-4.53-.16-3.24,1.89,4.67,7.39,9.34,14.78,14.01,22.18l22.31,35.3c1.69,2.68,3.39,5.36,5.08,8.04.98,1.55,3.49.96,3.49-.95.01-4.23.03-8.46.04-12.7.03-10.15.06-20.3.1-30.45.04-12.25.08-24.5.11-36.76l.1-31.61c.02-4.98.26-10.02.05-15-.02-.44-.07-.85-.35-1.22-.47-.64-1.29-1.15-2.12-.86-1.09.38-1.6,1.4-2.22,2.31l-2.95,4.34-9.85,14.5c-7.54,11.11-15.09,22.22-22.63,33.34-1.73,2.54-3.45,5.09-5.18,7.63-1.36,2,1.89,3.88,3.24,1.89Z"/>
      <path class="cls-1" d="m111.52,85.65c-8.06,4.81-16.12,9.62-24.18,14.42-12.74,7.6-25.49,15.2-38.23,22.8-2.91,1.74-5.82,3.47-8.73,5.21-1.31.78-1.18,3.09.45,3.43,3.75.77,7.49,1.54,11.24,2.31,8.95,1.84,17.91,3.67,26.86,5.51l32.47,6.66,28.17,5.78c4.54.93,9.07,1.95,13.62,2.79.06.01.13.03.19.04,1.51.31,3.04-1.29,2.12-2.75-4.67-7.39-9.34-14.78-14.01-22.18-7.44-11.77-14.87-23.54-22.31-35.3-1.69-2.68-3.39-5.36-5.08-8.04-1.29-2.03-4.53-.16-3.24,1.89,4.67,7.39,9.34,14.78,14.01,22.18l22.31,35.3c1.69,2.68,3.39,5.36,5.08,8.04l2.12-2.75c-3.75-.77-7.49-1.54-11.24-2.31-8.95-1.84-17.91-3.67-26.86-5.51l-32.47-6.66-28.17-5.78-9.21-1.89c-1.44-.3-2.94-.76-4.41-.9-.06,0-.13-.03-.19-.04l.45,3.43c8.06-4.81,16.12-9.62,24.18-14.42,12.74-7.6,25.49-15.2,38.23-22.8,2.91-1.74,5.82-3.47,8.73-5.21,2.07-1.24.19-4.48-1.89-3.24Z"/>
      <path class="cls-1" d="m1.85,135.26c8.62-.8,17.24-1.61,25.87-2.41l12.66-1.18c.7-.07,1.39-.08,2.02-.42.59-.32,1.16-.69,1.73-1.03l21.72-12.95c9.96-5.94,19.92-11.88,29.89-17.83,5.8-3.46,11.71-6.78,17.42-10.39.09-.06.18-.11.27-.16,2.07-1.24.19-4.48-1.89-3.24-8.06,4.81-16.12,9.62-24.18,14.42-12.74,7.6-25.49,15.2-38.23,22.8-2.91,1.74-5.82,3.47-8.73,5.21l.95-.26c-11.55,1.08-23.1,2.15-34.65,3.23-1.61.15-3.22.3-4.83.45-2.38.22-2.41,3.97,0,3.75h0Z"/>
    </g>
  </g>
</svg>