<?xml version="1.0" encoding="UTF-8"?>
<svg id="Layer_2" data-name="Layer 2" xmlns="http://www.w3.org/2000/svg" viewBox="0 0 230.21 190.92">
  <defs>
    <style>
      .cls-1 {
        fill: none;
        stroke: #231f20;
        stroke-miterlimit: 10;
        stroke-width: 5px;
      }

      .cls-2 {
        fill: #231f20;
        font-family: Inter-Medium, Inter;
        font-size: 139.33px;
        font-variation-settings: 'wght' 500, 'slnt' 0;
        font-weight: 500;
        letter-spacing: -.06em;
      }
    </style>
  </defs>
  <g id="Layer_1-2" data-name="Layer 1">
    <g>
      <path class="cls-1" d="m213.25,88.08c-2.53-2.96-3.79-8.58-3.79-16.86v-37.83c0-5.25-.45-9.81-1.36-13.68-.9-3.87-2.28-7.09-4.13-9.64-1.85-2.55-4.18-4.45-7-5.7-2.81-1.25-6.13-1.88-9.96-1.88v.09c-.65-.06-1.3-.09-1.96-.09H45.31c-.72,0-1.42.04-2.12.1v-.1c-3.82,0-7.14.63-9.96,1.88-2.82,1.25-5.15,3.15-7,5.7-1.85,2.55-3.23,5.76-4.13,9.64-.9,3.87-1.36,8.43-1.36,13.68v37.83c0,8.28-1.26,13.9-3.79,16.86-2.53,2.96-7.35,4.46-14.46,4.51v4.62c7.11.05,11.93,1.55,14.46,4.51,2.53,2.96,3.79,8.58,3.79,16.86v37.83c0,5.25.45,9.81,1.36,13.68.9,3.87,2.28,7.09,4.13,9.64,1.85,2.55,4.18,4.45,7,5.7,2.81,1.25,6.13,1.88,9.96,1.88v-.09c.65.06,1.3.09,1.96.09h139.75c.72,0,1.42-.04,2.12-.1v.1c3.82,0,7.14-.63,9.96-1.88,2.82-1.25,5.15-3.15,7-5.7,1.85-2.55,3.23-5.76,4.13-9.64.9-3.87,1.36-8.43,1.36-13.68v-37.83c0-8.28,1.26-13.9,3.79-16.86,2.53-2.96,7.35-4.46,14.46-4.51v-4.62c-7.11-.05-11.93-1.55-14.46-4.51Z"/>
      <text class="cls-2" transform="translate(73.14 146.39)"><tspan x="0" y="0">B</tspan></text>
    </g>
  </g>
</svg>