<?xml version="1.0" encoding="UTF-8"?>
<svg id="Layer_2" data-name="Layer 2" xmlns="http://www.w3.org/2000/svg" viewBox="0 0 259.52 268.79">
  <defs>
    <style>
      .cls-1 {
        stroke-width: 3px;
      }

      .cls-1, .cls-2 {
        fill: none;
        stroke: #231f20;
        stroke-miterlimit: 10;
      }

      .cls-2 {
        stroke-width: 4px;
      }
    </style>
  </defs>
  <g id="Layer_1-2" data-name="Layer 1">
    <g id="ZYD0uk.tif">
      <g>
        <path class="cls-1" d="m156.83,267.22s.18-.13.28-.15c.28-.04,1.64.18,2.02.14,1.36-.13,2.71-.33,4.06-.5.08-.05.16-.1.24-.16,1.44-.23,2.9-.38,4.32-.71,1.03-.24,4.35-1.19,4.49-1.23.76-.26,1.53-.52,2.29-.79.14-.05,4.96-2.32,7.22-3.41l.49-.22c.75-.53,2.56-1.75,2.72-1.83.14-.15.28-.3.42-.44.32-.28,2.66-2.54,3.52-3.4.35-.46,2.01-2.58,2.49-3.18.05-.08.1-.16.14-.24.16-.22,3.79-8.99,3.87-9.74.15-.15.63-1.81.72-2.5.06-.06,1.14-4.14,1.62-6.13.02-.02,0-.17-.02-.22,0-.21.11-2.63.15-3.63.17-.15.68-1.37.77-1.83,0-.15,0-.3-.01-.44.08-.46.17-.92.25-1.37.02-.02.13-.98.21-1.36,0-.15,0-.3,0-.44l.25-1.37s.06-.06.06-.07c-.02-.05-.06-.1-.08-.15.09-.46.18-.92.27-1.38,0-.14-.02-.29-.03-.43-.7-.53.48-4.1.7-5.48.13-.77.57-6.33,1.02-8.34.28-1.25.33-2.56.54-3.83.16-.97.48-1.91.6-2.88.19-1.65.25-3.32.42-4.97.1-.98.39-1.93.49-2.91.19-1.8.75-5.48.9-5.51.56.12,1.12.23,1.68.35.05-.06,3.79,1,5.76.91,4.03-.19,8.06-.32,12.08-.47.08-.05.16-.1.23-.15.91-.1,1.82-.2,2.73-.3.15-.05.29-.09.44-.14,2.59-.92,5.51-.65,7.94-2.16.22.04,1.33-.24,1.66-.41.36-.14.72-.27,1.07-.41.45-.31,1.79-.76,1.81-.93,1.54-.34,5.28-2.67,5.65-2.76.3-.15.61-.29.91-.44.04.03,1.05-.71,1.12-.7l1.16-.83c.06-.05.12-.08.2-.07.08-.06.17-.12.25-.18,1.25-1,6.22-5.57,6.88-6.17.05-.08.1-.15.15-.23.09-.15.18-.3.28-.44.28-.46.57-.93.85-1.39.23-.6.5-1.2.7-1.82,1.12-3.52-1.92-7.05-5.22-6.99-.23-.08-.46-.16-.69-.24-3.88-.25-7.56,1.04-11.35,1.53-.07,0-.14-.02-.21-.03-1.38.06-2.74.9-4.14.1-.06-.03-.17-.03-.22,0-1.44.93-3.11.7-4.69.86-1.57.15-3.16.1-4.74.01-1.09-.06-2.16-.33-3.24-.5-.15,0-.29,0-.44.01-.53-.16-1.07-.33-1.6-.49-.14-.04-.29-.09-.43-.13-.94-.37-1.89-.73-2.91-1.13.5-.91,1.86-3.55,2.11-3.74v.08s0-.08,0-.08c.11-.12.22-.23.33-.35.02-.07.03-.15.05-.22.29-.43.59-.86.88-1.28,1.13-1.84,2.26-3.68,3.4-5.52.07-.15.14-.3.21-.45.15-.23.31-.45.46-.68.22-.45.45-.91.67-1.36.16-.22.32-.45.48-.67.22-.45.44-.9.66-1.35.03-.08.05-.16.08-.24l.81-1.39c.72-1.32,1.46-2.63,2.14-3.97,1.78-3.51,3.55-7.03,5.28-10.57.18-.37,1.25-3.1,1.41-3.8.15-.16.3-.31.46-.47l.09-.21c.13-.14.26-.29.39-.43.09-.31.18-.62.27-.93.05-.08.11-.16.16-.24.02-.14.05-.29.07-.43.13-.15.26-.29.39-.44.02-.16.04-.31.05-.47.21-.44.42-.88.63-1.33.02-.09.03-.17.05-.26.18-.28.36-.57.55-.85.05-.25.09-.49.14-.74.05-.08.11-.16.16-.23.01-.15,0-.31.05-.44,1.06-2.65,2.12-5.29,3.18-7.94.21-.46,1.11-2.94,1.32-3.17,0,0,.01,0,.01,0,.07-.15.27-1.74.27-1.82.21-.23.78-.98.85-1.14l2.15-6.37c.04-.14.08-.28.12-.42.07-.27.14-.54.21-.81.24-.94.86-3.84.91-3.89.09-.18.18-.35.27-.53.13-.38.26-.76.38-1.15.18-.68,1.53-5.31,1.85-6.44.44-1.55.8-3.12,1.19-4.68,0-.15.47-2.62.58-3.26.32-1.86.62-3.73.93-5.59.08-.15.16-.3.24-.45.23-1.47.35-2.97.73-4.39.33-1.25.64-2.47.42-3.76.04-.07.09-.15.13-.22.03-.68.06-1.36.1-2.04.05-.08.1-.15.15-.23.05-.61.11-1.22.16-1.83.02-.02.06-.06.06-.07-.02-.05-.06-.1-.09-.15.08-1.29.17-2.58.25-3.87.02-.02.07-.06.06-.07-.02-.05-.06-.1-.09-.15-.28-2.64.25-5.3-.26-7.94-.32-1.65-.43-3.33-.64-5,0-.15,0-.29,0-.44-.25-.88-.43-1.78-.76-2.63-.71-1.8-1.5-3.57-2.25-5.36-.28-.44-.55-.89-.83-1.33-1.47-1.7-2.95-3.4-4.41-5.12-2.7-3.18-5.81-5.91-9.07-8.48-.16-.08-.31-.16-.47-.23-.15-.15-.29-.3-.44-.45-.16-.08-2.59-1.75-2.75-1.83-.06-.07-.12-.13-.18-.2-.17-.08-.33-.17-.5-.25-3.41-2.29-6.97-4.31-10.85-5.71-.16-.06-.32-.12-.48-.18-.82-.32-2.66-1.08-2.7-.99-.15,0-.9-.38-.9-.38-.07-.08-.14-.15-.21-.23,0,0,0-.02,0-.02-.15-.07-.3-.14-.45-.21-.76-.26-1.52-.51-2.29-.77-.15,0-.29,0-.44.01-1.67-.46-3.33-.93-5-1.39-.83-.23-1.67-.43-2.5-.64-.15,0-.29,0-.44,0-.69-.16-1.37-.32-2.06-.48-.15,0-.29.01-.44.02-.31-.08-.61-.16-.92-.24-.15,0-.29,0-.44.01-.76-.22-1.51-.5-2.28-.65-.89-.17-1.8-.28-2.71-.28-.76,0-5.81.05-6.9.05-2.43,0-4.85,0-7.28,0-1.54,0-3.07-.02-4.61-.02-.22,0-3.09.67-4.21.42-.76.19-1.4.38-2.05.51-1.49.31-2.98.59-4.47.88-.06-.02-.12-.03-.18-.05-1.07.26-2.15.52-3.22.78-.06,0-.13,0-.19,0-3.19.89-6.39,1.8-9.59,2.65-.45.12-.98.1-1.45,0-3.09-.6-6.1-1.66-9.31-1.52-.11,0-.23,0-.34,0-2.06-.22-4.11-.61-6.18-.64-3.8-.05-7.6.07-11.4.21-.64.02-5.45.73-6.43,1-1.49.42-9.42,3.01-9.84,3.57-3.5.63-6.35,2.53-8.97,4.62-.42-.21-.79-.43-1.18-.59-1.03-.43-2.08-.83-3.12-1.24-.28-.11-.57-.19-.85-.3-2.1-.88-4.44-.82-6.53-1.81-1.16-.55-2.52-.68-3.8-.95-.75-.16-1.53-.19-2.27-.38-1.1-.29-2.16-.74-3.27-.99-1.96-.44-3.94-.79-5.91-1.14-.38-.07-.8.06-1.19.11-.09.01-2.48-.61-3.59-.75-2.41-.32-4.84-.39-7.26-.7-1.67-.21-8.72-.13-10.55,0-2.59.18-5.19.25-7.74.68-3.16.53-6.3,1.17-9.4,2.15-4.52,1.43-8.74,3.4-12.61,6.07-1.73,1.19-3.23,2.73-4.81,4.14-1.31,1.18-2.74,2.29-3.83,3.66-1.49,1.87-2.71,3.95-4.03,5.95-.65.98-1.41,1.92-1.89,2.98-.9,2-1.62,4.08-2.42,6.13-.53,1.36-1.09,2.7-1.55,4.08-.37,1.13-.67,2.3-.9,3.47-.49,2.49-.95,4.99-1.36,7.49-.22,1.3-.37,2.62-.45,3.94-.11,1.76-.13,3.52-.19,5.28,0,.07.01.15.02.22-.02,1.96-.16,3.93-.02,5.89.13,1.87-.66,3.76.18,5.59.01.03,0,.08,0,.11.29,1.33-.1,2.7.41,4.05.35.92.34,1.99.49,2.99.03.14.06.27.1.41.12.84.25,1.68.37,2.51.04.15.09.3.13.45.18,1.14.36,2.28.54,3.42.04.14.09.29.13.43.03.3.07.61.1.91.05.15.1.3.15.46.23,1.31.42,2.62.68,3.92.61,3.01,1.26,6.01,1.89,9.02,0,.07.02.13.06.19,0,.56.67,3.01.83,3.71.74,3.12,1.33,6.28,2.14,9.39,1.09,4.19,2.34,8.34,3.53,12.51,1.02,3.57,1.94,7.17,3.08,10.7,1.38,4.28,2.94,8.5,4.42,12.75l.44,1.12c.39,1.07.77,2.14,1.19,3.2,3.24,8.19,6.73,16.27,11.53,23.69,1.19,1.84,2.56,3.56,3.85,5.34.05.07.1.14.14.21.25.32,1.13,1.41,1.31,1.63h.11s.01.12.01.12c0,0,0-.03,0-.03,1.54,1.48,2.99,3.07,4.65,4.41,3.8,3.07,8.02,4.68,13.08,3.93,2.7-.4,5.03-1.37,7.27-2.79.07-.06.13-.11.2-.17,1.43-1.26,2.99-2.39,4.25-3.79,2.92-3.22,5.69-6.57,8.52-9.87.35-.37.71-.74,1.06-1.11.7-.84,1.41-1.68,2.11-2.52.35-.39.7-.77,1.06-1.16,3.55-3.89,7.09-7.79,10.58-11.62,4.09,2.02,8.09,3.61,12.48,3.93.59.04,1.19-.02,1.78,0,.35.01.86-.03.99.16.17.23.15.79-.02,1.03-.65.92-1.46,1.73-2.1,2.66-2.28,3.35-5.3,5.7-9.24,6.72-2.97.77-5.98,1.4-8.97,2.13-2.27.56-4.6.96-6.61,2.28-.16.05-.31.1-.47.14-.34.26-.68.51-1.02.77-.12.12-.24.24-.35.36-2.4,1.57-3.37,4.3-2.52,7.05.71,2.29,2.33,3.82,4.28,5.05,4.18,2.62,8.82,3.86,13.67,4.4.07.05,3.65.16,5.38.31,3,.27,6.04.18,8.97-.64,2.12-.59,6.43-2.28,6.51-2.42.15,0,7.44-3.39,10.21-6.04.08.01.15.03.23.04.07,8.86.14,17.71.22,26.57,0,.33.08.66.13.99.1.58.7,11.82.69,12.47-.01.87,1.13,10.71,1.21,10.88,0,.08.04.13.12.17.06.31.12.62.18.92,0,.07,3.8,10.87,6.05,14.1.21.29.43.58.64.86l.72.95c.2.29.4.57.6.86,1.7,1.51,3.38,3.04,5.1,4.52.29.25.73.33,1.1.48.16.15.32.3.48.45.82.4,1.64.8,2.46,1.2.3.15.6.29.89.44,1.07.28,2.13.56,3.2.84.15.08.3.16.45.24.91.38,9.73,1.43,10.75.74"/>
        <path class="cls-1" d="m152.95,14.19c.78.18,10.6,3.42,14.43,5.04,2.6,1.1,5.02,2.63,7.51,4,.33.18.57.54.84.82.05.05.1.11.15.16h.47s.21,0,.21,0c.48.31.95.63,1.43.94.21.22,4.68,3.66,6.65,5.22,1.16.92,2.29,1.9,3.3,2.98,2.76,2.98,5.45,6.03,8.17,9.05.22.29.43.57.65.86,2.88,3.58,5.42,7.41,7.53,11.48,2.04,3.95,4.57,7.7,5.5,12.48-1.48-.11-2.82-.22-4.16-.32-.08-.05-.15-.1-.23-.15-1.37,0-4.95.14-5.38.17-1.14.09-2.27.29-3.41.41-.49.05-.98.02-1.48.03-.08,0-.18-.05-.22-.02-.89.67-2.05.49-2.99.99-.15.08-.34.12-.51.13-2.53.17-4.63,1.24-6.46,2.98-.78.74-1.73,1.31-2.59,1.98-1.61,1.25-2.7,2.84-3.22,4.84-.17.66-.65,1.24-.93,1.88-.28.63-.49,1.3-.73,1.95-.05.15-.11.31-.16.46-.02.15-.04.3-.06.46-.04.15-.09.29-.13.44-.02.07-.06.14-.07.21-.16,2.35-.24,7.58-.13,7.85.11.27.86,6.47,1.07,7.62.05.16.11.31.16.47.1.45,1.33,4.8,1.38,4.93.48,1.35,3.12,9.01,4.49,10.89.18.25.18.63.26.95,0,.13.01.26.02.39.03.1.06.2.08.3.04.07.08.14.13.21,1.39,2.88,2.79,5.76,4.18,8.64.04.07.09.13.13.2.81,1.57,1.57,3.16,2.44,4.69.67,1.17,1.57,2.2,2.23,3.37.57,1,.88,2.14,1.41,3.17,1.08,2.08,2.26,4.12,3.35,6.19.25.48.35,1.04.52,1.56.01.04,0,.08.02.11.81,1.3,1.62,2.61,2.44,3.91.09.15.32.25.36.4.7,2.56,2.7,4.26,4.15,6.33.78,1.11,1.67,2.14,2.58,3.29-.35.16-.64.29-.92.42-.14.06-.27.11-.41.17-1.13.35-2.29.62-3.05,1.69-.24.34-.69.63-1.11.75-1.55.46-6.68,12.73-6.36,14.1.29,1.27-3.53,35.7-3.58,36.06-.04.26-.1.51-.15.77-.17.86-.17,3.09-.22,3.32-.15.62-.35,1.22-.52,1.83-.04.22-.2,1.41-.24,1.79-.05.23-.1.45-.14.68.02.54-.59,4.4-.62,4.52-.25,1.45-.51,2.9-.76,4.35,0,.15-.03.9-.05,1.13-.05.22-.1.44-.15.66-.02.24-.05.48-.07.72-.05.21-.2,1.11-.23,1.35-.04.14-.08.28-.11.41-.11.62-1.12,4.87-1.17,5-.43,1.24-1.04,2.45-1.24,3.73-.21,1.34-.93,2.53-1.52,3.53-1.17,1.98-2.93,3.67-4.65,5.26-2.54,2.35-5.67,3.76-8.89,4.95-.49.18-.99.35-1.49.53-.13.06-3.41.84-4.85,1.33-2.06.7-4.16,1-6.33,1.1-1.59.07-3.18.29-4.77.42-.2.02-.41-.13-.62-.2-.04-.06-.09-.09-.16-.09-.06-.06-.12-.11-.18-.17-.17-.04-.35-.08-.52-.12-5.02-.51-8.77-3.23-11.96-6.91,0-.07-.02-.11-.09-.12-.15-.3-.26-.62-.44-.89-1.45-2.1-2.63-4.33-3.75-6.62-.67-1.37-.59-2.8-1.07-4.14-.06-.22-.11-.43-.17-.65-.03-.24-.05-.48-.08-.72-.05-.21-.1-.43-.15-.64-.37-1.9-.81-3.78-1.08-5.69-.15-1.07-.55-13.25-.57-14.07-.05-.08-.1-.15-.15-.23,0-.87-.29-10.7-.24-13.96.03-2.37-.03-4.75-.06-7.12,0-1.82,0-3.63,0-5.45.02-4.83.05-9.67.07-14.5.05-.08.09-.15.14-.23,0-1.14,0-2.28.01-3.42-.05-.15-.1-.3-.16-.45-.11-.61-.23-1.22-.34-1.83-.03-.08-.07-.16-.1-.24-1.04-4.12-3.29-7.45-6.89-9.65-2.27-1.39-4.77-2.48-7.61-2.12-.66.08-1.33.01-1.98.01.69-2.4,2.67-8.69,2.68-8.84.21-.46.42-.91.62-1.37,1.09-2.58,2.17-5.15,3.26-7.73,0-.14-.02-.29-.03-.43,0-.08.56-.86.84-1.17,1.02-2.7,2.1-5.38,3.05-8.11.79-2.29,1.48-4.63,1.73-7.06l.17-.45c.02-.23.03-.47.05-.7.03-.06.06-.12.08-.19.05-.09.1-.18.14-.27.06-.07.63-7.5.69-8.59.05-.08.11-.16.16-.24,0-2.2,0-4.4,0-6.59-.05-.08-.11-.16-.16-.24-.06-1.78.36-3.62-.28-5.32-.48-1.28,0-2.51-.18-3.74-.06-.3-.32-4.16-.36-4.31-.3-1.06-1.75-7.57-2.05-8.86-.01-.22-.03-.43-.04-.65-.81-2.17-1.6-4.35-2.44-6.51-.17-.44-.52-.8-.79-1.2-.06-.08-.12-.16-.18-.23-.09-.16-.18-.31-.27-.47-.05-.07-.09-.14-.14-.22-.86-.93-1.72-1.86-2.58-2.8-.37-.28-.73-.55-1.1-.83l-.27-.44c-.16-.08-.32-.16-.48-.24-.45-.3-.89-.61-1.34-.91-.15-.08-.3-.15-.45-.23,0,0,0-.01,0-.01-.14-.08-.27-.15-.41-.23,0,0-.04-.04-.04-.04-.14-.06-.28-.12-.42-.18-1.08-.41-2.17-.82-3.25-1.24-.14,0-.28.02-.41.03-.08.01-.16.03-.24.04l-.67-.26c-1.23-.21-4.82-.6-5.37-.57-2.15.12-6.78.59-6.94.64-.98.19-1.95.38-2.93.57-.14.04-6.18,2.09-9.05,3.08-.08.06-.15.12-.23.18-1.75.77-3.49,1.54-5.24,2.31-.21,0-.42,0-.63,0-.08-.45.4-2.14.28-2.7-.02-.31-.03-.62-.05-.93.08-.22.16-.45.24-.67.25-1.75.46-3.51.75-5.26.24-1.45.89-2.92.76-4.33-.15-1.64.97-2.83.96-4.33,0-.33-.05-.67,0-.99.08-.4.23-.78.38-1.16.08-.19.3-.32.35-.51.51-2.03,1.29-3.96,2.2-5.84.06-.12-.04-.31-.02-.46.04-.33.08-.66.18-.97.31-.95.66-1.89,1.04-2.98.45-.77.98-1.71,1.54-2.64,2.19-3.62,4.43-7.2,6.56-10.85,1.38-2.36,3.5-4.03,5.31-5.99,2.1-2.26,10.26-6.81,11.73-7.5.03-.02.08-.03.1-.05.9-1.51,6.49-2.41,7.56-2.63.23-.16.46-.32.69-.48.15-.02,5.09-.5,6.9-1.49.21-.12,2.51.18,3.41.17,2.47-.02,9.52-.28,9.65-.26.99.21,4.46.87,4.76.89.22.05,2.93.51,4.07.69.15.04.91.2,1.14.23.15.05.3.1.45.15.16.02.33.05.49.07.14.05.28.09.41.14Z"/>
        <path class="cls-1" d="m48.17,183.52c-1.09-.99-2.3-1.87-3.23-2.98-1.38-1.66-2.57-3.48-3.83-5.24-.12-.17-.14-.41-.2-.62-.08-.14-.16-.27-.24-.41-.18-.18-.42-.34-.55-.56-1.45-2.4-3.02-4.74-4.28-7.23-1.28-2.54-2.27-5.23-3.36-7.86-.92-2.21-1.8-4.43-2.7-6.65,0-.15,0-.3.01-.45-.23-.45-4-10.88-5.52-15.2,0-.15,0-.29,0-.44,0-.08,0-.16,0-.24-.06-.06-.12-.11-.18-.17-1-3.4-1.99-6.79-3-10.19-.55-1.86-1.18-3.69-1.65-5.57-1.59-6.39-3.16-12.79-4.67-19.21-.87-3.69-1.69-7.39-2.43-11.1-.6-2.98-1.08-5.97-1.57-8.97-.37-2.27-.75-4.55-.94-6.84-.22-2.6-.23-5.22-.33-7.83,0-.68,0-1.37,0-2.05-.12-.9-.48-1.84-.32-2.68.3-1.5.7-6.46.82-7.46.16-1.34.11-2.7.32-4.03.14-.89.93-2.91.97-3.05.03-.17.05-.34.08-.5.06-.21.12-.43.19-.64.78-2.61,1.46-5.25,2.38-7.8.52-1.46,1.42-2.77,2.14-4.16,1.91-3.67,4.49-6.82,7.36-9.78,1.84-1.9,4.16-3.05,6.32-4.46,1.07-.7,2.13-1.44,3.25-2.06.66-.36,1.42-.53,2.15-.75,1.38-.43,7.01-2.19,8.24-2.54.23-.07.52.1.75.05,2.62-.58,5.33-.37,7.92-.98.74-.17,9.03-.19,9.39-.24.26-.04.55-.04.8.02.51.13,4.36.63,4.58.51.52-.27,6.12.74,6.55.91.14.05.28.2.39.18,1.18-.21,2.28.11,3.37.48.15.04.31.09.46.13.23.03.47.05.7.08.14.04.29.09.43.13.23.03.46.07.69.1.15.05,1.53.34,2.06.45.14.04.28.09.42.13,1.38.34,2.75.7,4.13,1.01.37.08.78-.01,1.16.04.29.04.57.18.84.3.1.04.15.2.25.22,1.31.29,2.62.58,3.93.86.18.04.39,0,.53.08.36.23.66.56,1.03.75.38.2.82.27,1.45.47-1.02,1.09-1.97,2.03-2.81,3.06-.25.3-.18.87-.39,1.09-.61.52-1.34.95-1.8,1.57-1.48,2.02-4.4,6.81-4.47,7.13-.04.22-.74,1.82-.98,2.43-1.6.4-6.19,11.84-6.37,13.24-.07.56-.18,2.14-.3,2.27-1.04,1.11-1.07,2.58-1.41,3.94-.05.14-.1.28-.15.41-.1.47-.2.93-.3,1.4-.05.14-1.14,4.45-1.55,6.48-.14.68.09,1.42.03,2.12-.03.35-.68,3.36-1.02,4.45-.38,1.21.63,2.52-.38,3.64-.09.1.15.47.17.71.02.33-.5,2.25-.3,2.69.29.65-.32,4.07-.28,4.14,0,1.52-.01,3.03-.02,4.55-.04.07-.05.14-.02.22-.02.96.86,12.64.64,15.31-.17,2.06.01,7.43.08,8.05.03.3-.23,3.95-.33,4.06-.58.66-.37,4.38-.7,5.38-.29.9-.17,1.93-.23,2.9,0,.15-.01,2.44-.11,2.63-.94,1.81.9,13.47,1.12,13.85.05.15.1.3.15.45.93,2.47,1.62,5.06,2.84,7.37,2.05,3.89,4.61,7.48,7.89,10.5.49.45.99.91,1.5,1.38-2.06,2.23-7.83,8.57-8.14,8.87-.68.08-11.96,13.78-14.29,16.43-.83.94-1.81,1.75-2.72,2.62-.16.08-.32.16-.48.24-1.14.52-2.28,1.05-3.43,1.57-.36.06-.72.13-1.07.19-.39,0-.77-.01-1.16-.02-.22,0-.44,0-.65,0-1.99-.3-3.6-1.31-5.05-2.65-.21-.23-.42-.46-.63-.69Z"/>
        <path class="cls-1" d="m182.44,18.83c-.52-.38-1.04-.75-1.56-1.13-.14-.08-.28-.16-.42-.23-3.64-1.96-7.28-3.93-10.93-5.89,0-.08-.01-.16-.02-.23.11,0,.24.04.33,0,1.08-.51,2.21-.7,3.4-.69.58,0,1.17-.23,1.75-.35.22,0,.44-.01.65-.02.45-.1.9-.2,1.35-.3.16-.13,4.21-.57,4.62-.68.05-.06,10.91-.06,11.06-.05.15,0,8.24.71,9.31.8.15.06.29.11.44.17.84.1,1.67.2,2.51.29.16.05.32.1.48.14,2.41.53,4.82,1.07,7.23,1.6l.43.13c3.89,1.22,7.71,2.64,11.31,4.57,1.64.88,3.23,1.86,4.85,2.79.14.08.29.16.43.24,2.43,1.83,4.93,3.58,7.27,5.53,1.71,1.42,3.21,3.11,4.8,4.67.06.06.12.12.18.18,2.69,2.76,5.11,5.68,5.97,9.58.05.15.1.3.15.45.1.61.21,1.21.31,1.82.06.28.11.55.17.83,0,.4-.02.8-.02,1.21.05.22.11.44.16.66.02,1.06.05,2.12.07,3.18.05.08.1.15.15.23,0,1.37,0,2.74,0,4.1-.05.08-.1.15-.15.23.15,1.05.3,2.1.42,3.16.02.15-.49.77-.65.93.02.45.03.9.05,1.36,0,.14,0,.29,0,.43l-.23,1.6c-.03.07-.02.14.02.21l-.58,4.33c-.06.15-.11.3-.17.45-.23,1.74-.45,3.48-.68,5.22-.06.22-.63,4.44-.73,4.59-.12.18-.94,3.19-.98,3.32-.27,1.14-.9,3.72-.96,3.87-.09.39-.18.79-.27,1.18-.05.13-.24,1.39-.33,1.88-.05.29-.19.55-.26.84-.21.78-.41,1.56-.62,2.35-.09.34-.17.68-.3,1-.16.4-.35.79-.53,1.18-.05.14-.11.28-.16.42-1.08,3.34-2.16,6.67-3.24,10.01-.08.04-.1.09-.07.17-.35.6-.47,2.72-.7,3.06-.18.26-2.18,5.12-2.4,5.87-.1.07-.2.13-.3.2-.67,1.78-1.32,3.56-2.01,5.33-.25.65-.59,1.26-.89,1.89-.48.99-.98,1.96-1.45,2.95-.09.19-1.08,2.31-1.14,2.5-1.1,3.45-3.35,6.35-4.66,9.7-.42,1.08-1.2,2.02-1.81,3.02-.01.16-.22.79-.3.94-.03.07-1.25,2.93-1.27,2.95-.84.88-.89,2.3-2.03,2.97-.14.29-.29.57-.43.86-.09.15-.17.3-.26.45-.15.23-.3.45-.45.68,0,0,0,0,0,0-.07.15-.14.3-.21.45-1.22,2.19-2.41,4.38-3.68,6.54-.21.36-.74.53-1.12.78-.14-.07-.29-.15-.43-.22-.25-.25-.49-.5-.74-.75,0-.08,0-.15,0-.23,0,0,.04-.04.04-.04.06-.06.12-.12.18-.18-.39-1.61,1.22-2.27,1.66-3.5.72-2.04,1.6-4.03,2.41-6.04,0-.07,0-.14-.02-.21.15-.47.3-.94.46-1.41.09-.14.17-.28.26-.42.17-1.52.36-3.03.52-4.55.09-.81.12-1.63.22-2.43.06-.54.18-1.07.28-1.61,0-2.29.19-9.86-.73-10.3-.17-.08-.82-8.79-.79-8.99.02-.18-.31-2.01-.21-2.83.07-.58-.43-4.04-.15-4.66,0-2.05,0-4.1,0-6.15-.21-.55.54-5.76.7-7.43.12-1.31.13-2.64.25-3.95.04-.4.31-.78.47-1.18.04-.12.08-.24.11-.35-.12-.53.08-3.35.31-4.23.06-.21.24-.41.24-.61,0-2.72-.02-5.43-.01-8.15,0-.71.14-1.42.16-2.13.01-.39-.03-.81-.16-1.18-.46-1.27-.99-2.53-.92-3.92-.06-.15-.12-.29-.18-.44,0,0-.04-.02-.04-.02-.21-.45-.42-.89-.63-1.34-.61-1.63-1.22-3.25-1.83-4.88-.08-.21-.17-.41-.26-.61-.05-.13-.1-.26-.15-.39-1.72-3.18-3.43-6.37-5.16-9.55-.3-.56-.7-1.06-1.05-1.59-.06-.14-.11-.29-.17-.43-2.97-3.95-5.73-8.08-8.97-11.79-4.67-5.35-9.8-10.27-15.71-14.3-.12-.08-.23-.19-.34-.29-.16-.06-.31-.12-.47-.18Z"/>
        <path class="cls-1" d="m114.12,142.54c-.78,1.9-1.37,3.88-2.05,5.82-.05.15-.11.3-.16.45-.72,1.83-2.36,6.57-2.43,6.64-.74.68.2,2.5-1.6,2.44-1.07-.04-2.14-.19-3.2-.32-.54-.07-1.06-.23-1.59-.35-.15-.05-.3-.11-.45-.16-1.21-.41-2.43-.82-3.64-1.24h-.22c-.08,0-.16,0-.24,0-.07-.06-.14-.13-.21-.19,0,0,0-.02,0-.02-.14-.07-.27-.15-.41-.22-2.14-1.33-4.44-2.45-6.39-4.01-5.73-4.59-9.18-10.65-10.94-17.76-.67-2.7-.9-5.41-.88-8.16,0-.85-.24-1.71-.18-2.55.07-.95.42-1.88.54-2.83.13-1,.11-2.02.21-3.03.04-.36.38-.7.38-1.06.03-1.31-.02-2.63-.03-3.95,0-.19-.02-.38,0-.56.14-.93.29-1.86.44-2.79.05-.08.1-.16.16-.23.03-.68.26-2.85.26-3.25.02-2.45.04-4.91.02-7.36,0-.78-.12-1.56-.19-2.34l-.08-2.03c-.06-.08-.56-2.96-.59-4.32-.03-1.38-.12-2.85.31-4.1.27-.8,1.38-1.42,2.24-1.91,1.78-1.03,3.66-1.88,5.46-2.87.81-.44,1.42-1.23,2.5-1.13.22.02.46-.31.7-.46.24-.15.48-.35.75-.42,1.6-.41,3.21-.79,4.81-1.18.15-.05.3-.11.45-.16.15-.03.31-.05.46-.08l.44-.15c.15-.02.31-.03.46-.05.22-.06.44-.12.66-.18.69-.1,1.38-.2,2.07-.31.2-.05.39-.1.59-.15.34-.1.73-.35,1.02-.27,1.41.37,2.79.57,4.17-.13.19-.1.51,0,.75.06.78.24,1.55.52,2.33.78.14.05.27.11.41.16,1.52.78,3.16,1.39,4.5,2.4.85.64,2.67,4.7,3.07,5.63.06.14.11.28.17.42l.27,1.17c.06.21.12.43.18.64.24,1.58,1.22,5.03,1.23,5.23.09,1.08.17,2.17.3,3.25.1.89,1.21,5.7,1.16,5.76-.85,1.17.14,6.33.06,6.88,0,1.74.02,5.67.02,5.89.05.09.1.18.15.27.06.27-.82,6.72-.9,7.65-.04.16-.09.31-.13.47-.03.23-.05.47-.08.7-.04.14-.08.28-.13.43-.03.23-1.35,4.83-1.88,6.69-.09.33-.07.69-.1,1.04-.15.29-3.54,7.88-4.99,11.42Zm-7.3-62.51c-1.38.33-2.79.55-4.12,1.02-1.13.41-1.81,1.66-1.68,2.57.43,3,5.29,6.69,8.26,6.2,1.99-.33,3.77-1.13,5.24-2.63,1.52-1.56,1.48-3.92-.62-5.13-2.19-1.26-4.55-1.75-7.08-2.02Z"/>
        <path class="cls-1" d="m209.13,138.1c-.1.17-.2.35-.29.52,0,.15,0,.29,0,.44-.2.85-.38,1.71-.63,2.55-.11.39-.87,1.57-1.02,1.81-.05.11-.1.22-.15.33-.58-1.03-1.15-2.06-1.73-3.1-.13-.31-1.35-2.88-1.83-3.86.01-.08,0-.14-.06-.2-.09-.15-.19-.3-.28-.45-.09-.17-.17-.34-.26-.5-.51-.67-2.71-3.46-2.64-3.56.46-.69-.08-.98-.39-1.44-.34-.48-.47-1.1-.74-1.64-.89-1.73-1.8-3.44-2.71-5.16,0,0-.01-.08-.01-.08l-.08-.03c-2.87-5.58-5.68-11.19-7.8-17.11-.12-.08-2.29-6.64-2.27-6.82-.04-.09-.08-.18-.12-.26-.52-1.74-1.64-9.64-1.66-10.61,0-.08.28-4.18.92-6.09.82-2.41,2.31-4.28,4.5-5.51,1.25-.7,2.64-1.16,3.95-1.77.77-.36,5.69-1.33,6.84-1.18,1.45.19,5.2.08,5.59.13.69.09,2.7.15,3,.25.23.07.44.18.66.27.14,0,.29,0,.43-.01.99.43.7,4.15.61,4.28-.76,1.11-1.45,8.59-1.55,9.04-.04.12-.08.24-.11.35.05.49.12,2.08.05,2.41-.07.36-.08.73-.19,1.08-.13.43-.5,5.61-.61,5.95-.64,1.95.47,9.07.42,9.24-.51,2.06-.35,4.04.64,5.94.06.12.08.3.04.43-.39,1.19.46,3.86.36,4.01-.58.84.61,8.64.68,9.06.06.35-1.03,8.41-1.16,9.09,0,.14-.48,2.07-.39,2.2Zm-13.27-51.67c2.96.01,5.49-1.46,6.95-3.72,1.45-2.24.57-4.05-2.11-4.21-1.56-.1-3.17-.23-4.67.06-1.59.31-3.18.94-4.6,1.74-1.47.82-1.57,1.98-.56,3.29,1.39,1.81,3.26,2.75,4.99,2.84Z"/>
        <path class="cls-1" d="m87.39,186.01c.9-.34,1.81-.68,2.71-1.01.1-.04.21-.08.32-.09,1.12-.11,3.66-.41,3.82-.46,1.06-.25,2.11-.5,3.17-.75.15-.05.29-.11.44-.16,4.04-1.01,7.8-2.59,10.65-5.76,1.95-2.18,3.73-4.51,5.62-6.75.78-.93,1.61-1.81,2.47-2.66,1.84-1.8,3.6-1.36,5.71.13,2.29,1.62,3.5,4.05,3.43,6.91-.02.93-.32,1.99-.85,2.73-4.28,6.08-9.96,10.16-17.28,11.83-.15.05-.29.09-.44.14-.23.03-2.63.6-3.37.74-.29.06-.61-.04-.92-.04-1.02-.01-2.04.04-3.06-.03-1.7-.11-5.4-.54-5.56-.58-.3-.03-.6-.06-.91-.1-.15-.04-.3-.09-.46-.13-.23-.03-.46-.06-.69-.09-.15-.04-.3-.09-.44-.13-.53-.11-1.07-.21-1.6-.32-.15-.05-.3-.11-.45-.16-1.79-.34-3.43-1-4.96-2.25.81-.3,2.52-.94,2.66-1Z"/>
        <path class="cls-1" d="m243.52,169.02c.29-.03.59-.07.88-.1.15-.04.31-.09.46-.13.91-.14,1.83-.28,2.74-.42l.14.18c-1.25.96-2.43,2.01-3.75,2.85-1.97,1.25-6.71,4.11-7.08,4.33-.3.18-.67.25-1.01.35-.41.13-5.53,1.6-6.74,1.85-.15.05-.3.1-.44.15-1.86.44-3.71.96-5.59,1.28-1.18.2-5.19.13-5.98.15-.08.05-.16.1-.24.16-1.71.08-9.82-.38-11.91-1.6-.26-.15-.47-.57-.51-.88-.15-1.16-.3-2.33-.27-3.49.02-.59.44-1.17.67-1.75.06-.14.11-.28.17-.42.68-2.22,2.12-3.68,4.35-4.36.77-.24,1.3-.88,2.31-.87.86,0,1.44.18,2.1.6,2.4,1.54,5.01,2.47,7.86,2.87.94.13,2.1-.46,2.86.57.02.02.07.03.1.03,2.2-.51,4.35.71,6.55.23.32-.07.66-.16.93-.33.56-.35,3.92-1.01,4.43-.35.07.09,3.73-.08,5.35-.58.08-.02.17-.05.25-.07.29-.03.58-.07.87-.1.16-.04.32-.09.48-.13Z"/>
        <path class="cls-1" d="m202.89,135.64c.09.17.17.34.26.5-.09-.17-.17-.34-.26-.5Z"/>
        <path class="cls-1" d="m212.85,152.06c.14.07.29.15.43.22-.14-.07-.29-.15-.43-.22Z"/>
        <path class="cls-1" d="m111.9,148.81c.05-.15.11-.3.16-.45-.05.15-.11.3-.16.45Z"/>
        <path class="cls-1" d="m72.8,134.97c0-.14.01-.29.02-.43,0,.14-.01.29-.02.43Z"/>
        <path class="cls-1" d="m24.28,135.9c0,.15,0,.29,0,.44,0-.15,0-.29,0-.44Z"/>
        <path class="cls-1" d="m123.08,141.11c0,.14.02.29.03.43,0-.14-.02-.29-.03-.43Z"/>
        <path class="cls-1" d="m102.62,157.05c.15.05.3.11.45.16-.15-.05-.3-.11-.45-.16Z"/>
        <path class="cls-1" d="m207,159.72c.14-.06.27-.11.41-.17-.14.06-.27.11-.41.17Z"/>
        <path class="cls-1" d="m243.52,169.02c-.16.04-.32.09-.48.13.16-.04.32-.09.48-.13Z"/>
        <path class="cls-1" d="m133.46,173.32c.05.15.1.3.16.45-.05-.15-.1-.3-.16-.45Z"/>
        <path class="cls-1" d="m24.11,135.49c.06.06.12.11.18.17-.06-.06-.12-.11-.18-.17Z"/>
        <path class="cls-1" d="m133.02,171.25c.03.08.07.16.1.24-.03-.08-.07-.16-.1-.24Z"/>
        <path class="cls-1" d="m98.76,155.8h.22s-.11.02-.11.02l-.11-.02Z"/>
        <path class="cls-2" d="m181.77,9.12c-.05.06-.11.11-.16.17.05-.06.11-.11.16-.17Z"/>
      </g>
    </g>
  </g>
</svg>