<?xml version="1.0" encoding="UTF-8"?>
<svg id="Layer_2" data-name="Layer 2" xmlns="http://www.w3.org/2000/svg" viewBox="0 0 138.86 170.16">
  <defs>
    <style>
      .cls-1 {
        fill: none;
        stroke: #231f20;
        stroke-miterlimit: 10;
        stroke-width: 4px;
      }
    </style>
  </defs>
  <g id="Layer_1-2" data-name="Layer 1">
    <g id="Khoii8.tif">
      <path class="cls-1" d="m78.73,2c1.29.27,2.56.63,3.86.8,4.06.51,8.18.69,12.19,1.47,5.32,1.03,10.63,2.24,15.8,3.85,5.38,1.68,10.73,3.67,15.2,7.26,2.66,2.14,5.22,4.47,7.45,7.04,2.69,3.11,3.57,7.01,3.57,11.09,0,25.47,0,50.94,0,76.42,0,8.74.13,17.48-.03,26.21-.13,7.28-3.24,13.18-9.14,17.53-8.25,6.07-17.7,9.29-27.6,11.29-5.12,1.04-10.3,1.97-15.5,2.37-7.39.57-14.83,1-22.22.77-9.11-.28-18.16-1.48-27.04-3.8-8.11-2.12-15.9-4.87-22.86-9.63-4.44-3.04-8.05-6.79-9.61-12.08-.52-1.76-.75-3.66-.76-5.5-.04-34.88-.03-69.76-.04-104.65,0-4.7,1.87-8.62,4.9-12.05,4.85-5.5,11.18-8.66,17.89-11.22,7.52-2.87,15.29-4.69,23.29-5.56,3.49-.38,6.97-.82,10.45-1.25.15-.02.27-.23.41-.36,6.6,0,13.19,0,19.79,0Zm-9.9,48.57c2.8-.18,5.61-.29,8.41-.55,5.22-.49,10.44-.96,15.63-1.66,3.79-.51,7.62-1.09,11.28-2.15,3.29-.96,6.49-2.4,9.52-4.02,2.98-1.6,5.87-3.48,8.48-5.62,3.93-3.22,2.79-6.7-.48-9.49-4.79-4.09-10.47-6.59-16.5-8.14-5.16-1.32-10.4-2.37-15.65-3.22-4.7-.76-9.46-1.45-14.2-1.52-6.6-.09-13.23.28-19.82.75-4.55.32-9.16.8-13.58,1.85-5.59,1.32-11.1,3.07-16.49,5.06-3.6,1.33-6.87,3.5-9.52,6.41-2.15,2.36-2.54,4.23-.68,6.81,1.23,1.72,2.94,3.24,4.73,4.39,6.65,4.27,14.08,6.55,21.78,8.16,8.95,1.88,17.98,2.67,27.1,2.93Zm55.91-.1c-.42-.04-.59-.12-.68-.06-6.85,4.03-14.28,6.49-21.97,8.34-7.49,1.8-15.07,2.97-22.75,3.29-6.46.27-12.95.27-19.42,0-5.02-.21-10.04-.87-15.02-1.6-8.8-1.29-17.33-3.56-25.36-7.48-1.75-.85-3.49-1.73-5.41-2.69,0,6.39-.01,12.51.02,18.62,0,.49.25,1.02.51,1.46,2.1,3.6,5.46,5.85,9.11,7.4,4.77,2.02,9.72,3.68,14.7,5.14,7.59,2.23,15.46,2.91,23.32,3.38,3.55.21,7.13.1,10.69.03,4.21-.08,8.48.13,12.61-.51,6.45-.99,12.85-2.41,19.18-3.98,6.26-1.55,12.15-4.13,17.19-8.27,1.69-1.39,3.2-3.18,3.24-5.5.12-5.84.04-11.68.04-17.57ZM14.12,86.1c0,5.86.21,11.38-.08,16.87-.16,3.03,1.27,4.82,3.27,6.55,3.8,3.28,8.18,5.42,12.92,7.03,8.5,2.88,17.21,4.59,26.14,5.26,2.64.2,5.26.71,7.89.76,3.2.06,6.42-.34,9.62-.3,7.58.09,15-1.12,22.4-2.48,8.12-1.49,15.84-4.04,22.85-8.5,3.72-2.37,6.06-5.34,5.68-10.16-.35-4.34-.05-8.73-.09-13.1,0-.83-.31-1.66-.56-2.9-.54.92-.68,1.57-1.06,1.77-2.55,1.33-5.04,2.9-7.75,3.76-5.89,1.87-11.83,3.7-17.87,4.92-6.53,1.31-13.18,2.43-19.82,2.69-10.78.42-21.55.12-32.29-1.75-8.91-1.56-17.55-3.65-25.74-7.46-1.81-.84-3.51-1.89-5.5-2.97Zm110.75,35.85c-1.43.79-2.39,1.34-3.37,1.85-6.33,3.3-13.07,5.34-19.99,7.05-7.42,1.84-14.95,2.83-22.53,3.39-4.7.34-9.45.27-14.16.02-6.15-.33-12.3-.86-18.41-1.6-8.66-1.04-17.03-3.26-25.02-6.8-2.43-1.08-4.79-2.28-7.28-3.47,0,5.16-.11,10.13.07,15.1.05,1.41.7,2.97,1.54,4.12.98,1.35,2.31,2.62,3.77,3.41,4.27,2.31,8.55,4.72,13.08,6.4,3.66,1.35,7.68,1.85,11.58,2.45,5.75.87,11.53,1.84,17.33,2.12,6.01.3,12.06-.09,18.08-.31,6.69-.25,13.29-1.15,19.8-2.79,6.65-1.67,13.2-3.61,18.99-7.38,2.48-1.61,4.61-3.78,6.49-5.36v-18.21Z"/>
    </g>
  </g>
</svg>