<?xml version="1.0" encoding="UTF-8"?>
<svg id="Layer_2" data-name="Layer 2" xmlns="http://www.w3.org/2000/svg" viewBox="0 0 215.49 131">
  <defs>
    <style>
      .cls-1 {
        fill: none;
        stroke: #231f20;
        stroke-miterlimit: 10;
        stroke-width: 5px;
      }
    </style>
  </defs>
  <g id="Layer_1-2" data-name="Layer 1">
    <g id="DRiO7l">
      <g>
        <path class="cls-1" d="m212.99,23.96v.23c-.29.75-.62,1.49-.87,2.26-.72,2.2-1.41,4.41-2.11,6.62-.47,1.14-.94,2.28-1.41,3.41-.06.16-.12.31-.18.47-.54,1.07-1.07,2.14-1.61,3.21-1.46,2.28-2.92,4.56-4.39,6.85-.28.38-.56.76-.84,1.14-.61.69-1.22,1.37-1.83,2.06-.54.59-1.07,1.18-1.61,1.77-.69.63-1.37,1.26-2.06,1.89-.45.38-.9.75-1.36,1.13-1.02.76-2.04,1.52-3.05,2.28-.12.08-.25.15-.37.23-1.15.67-2.3,1.34-3.45,2-.77.39-1.54.79-2.31,1.18-.36.16-.72.31-1.08.47-1.15.44-2.29.88-3.44,1.31-1.66.49-3.33.98-4.99,1.48-.69.14-1.38.28-2.07.42-1.07.17-2.13.33-3.2.5-1.14.15-2.28.3-3.41.46-1.14.07-2.29.14-3.43.21-1.14,0-2.28.01-3.42.02h-2.76c-1.44-.08-2.87-.15-4.31-.23l-3.21-.46c-1.14-.17-2.28-.33-3.42-.5-.46-.14-.92-.28-1.38-.42-1.81-.49-3.63-.97-5.44-1.46-1.22-.44-2.45-.89-3.67-1.33-2.21-1.13-4.42-2.25-6.63-3.38-.28-.17-.56-.34-.84-.51-.85-.55-1.7-1.09-2.54-1.64-.13-.13-.25-.28-.4-.4-3.13-2.68-6.35-5.26-9.38-8.05-3.68-3.39-7.2-6.95-10.79-10.43-1.06-.91-2.12-1.83-3.18-2.74-.36-.23-.73-.46-1.09-.69-.78-.53-1.55-1.06-2.33-1.59-1.15-.59-2.31-1.18-3.46-1.77-.12-.02-.25-.05-.37-.07-1.09-.36-2.18-.72-3.27-1.09-1.21-.22-2.42-.44-3.64-.67-1.07-.08-2.14-.15-3.21-.23-1.14,0-2.28,0-3.41,0-1.14.15-2.29.3-3.43.46-2.28.76-4.56,1.52-6.84,2.28-1.53.9-3.07,1.79-4.6,2.69-.83.61-1.67,1.22-2.5,1.83-.53.45-1.06.91-1.59,1.36-.53.48-1.06.95-1.59,1.43-.61.66-1.22,1.33-1.84,1.99-.61.69-1.22,1.38-1.83,2.07-.38.45-.75.91-1.13,1.36-.22.25-.44.49-.84.93.08-.42.1-.56.12-.69.32-1.21.65-2.43.97-3.64.36-1.07.72-2.14,1.08-3.21.1-.3.19-.6.29-.9.36-.84.72-1.68,1.08-2.53l1.48-3.4c.21-.43.42-.86.63-1.3.4-.71.8-1.42,1.2-2.13.73-1.15,1.46-2.3,2.19-3.45.04-.05.05-.1.05-.16.83-1.09,1.66-2.17,2.49-3.26.3-.37.6-.75.91-1.12.7-.76,1.41-1.52,2.11-2.27.54-.53,1.07-1.07,1.61-1.6.74-.61,1.48-1.23,2.23-1.84.3-.22.6-.45.9-.67,2.2-1.37,4.41-2.74,6.61-4.11,2.36-.93,4.71-1.87,7.07-2.8,1.15-.34,2.3-.69,3.45-1.03,1.14-.23,2.29-.46,3.43-.7,1.56-.18,3.13-.34,4.69-.54,1.02-.13,2.03-.29,3.05-.44,3.12,0,6.24,0,9.36,0,2.21.23,4.41.46,6.62.69,1.21.25,2.42.5,3.63.75,1.15.28,2.3.56,3.44.85,1.14.37,2.28.74,3.42,1.11.16.07.32.14.47.21.98.39,1.97.77,2.95,1.16,1.13.56,2.26,1.13,3.39,1.69.29.14.59.28.88.42.86.53,1.71,1.05,2.57,1.58,2.28,1.67,4.57,3.35,6.85,5.02.16.14.31.28.47.42.98.87,1.96,1.73,2.94,2.6.21.21.42.42.63.63.86.83,1.71,1.67,2.57,2.5.31.31.61.61.92.92.91.91,1.83,1.83,2.74,2.74.22.22.45.45.67.67.92.92,1.84,1.84,2.75,2.75.3.3.61.61.91.91.83.7,1.67,1.41,2.5,2.11.47.43.93.85,1.4,1.28.68.49,1.35.97,2.03,1.46,2.29,1.19,4.58,2.37,6.87,3.56,1.22.31,2.44.63,3.65.94,1.14.21,2.28.43,3.42.64,1.06.08,2.13.15,3.19.23,1.15-.12,2.3-.23,3.45-.35,1.13-.19,2.26-.38,3.4-.57,1.07-.34,2.14-.68,3.22-1.02,1.13-.49,2.26-.99,3.39-1.48.08-.06.17-.11.25-.17,1.14-.69,2.28-1.37,3.42-2.06.61-.46,1.23-.92,1.84-1.38.61-.53,1.21-1.07,1.82-1.6.69-.61,1.37-1.21,2.06-1.82.38-.38.75-.75,1.13-1.13.69-.77,1.37-1.53,2.06-2.3.15-.16.28-.33.44-.48.68-.68,1.37-1.36,2.05-2.04Z"/>
        <path class="cls-1" d="m112.55,128.5h-9.59c-.12-.07-.23-.2-.36-.21-2.38-.26-4.76-.51-7.15-.77-1.14-.23-2.29-.47-3.43-.7-1.15-.34-2.3-.69-3.45-1.03-.2-.02-.41-.05-.61-.07-.23-.13-.44-.31-.68-.38-4.4-1.44-8.48-3.54-12.37-6.04-.22-.14-.43-.28-.65-.42-.93-.68-1.87-1.36-2.8-2.04-1.86-1.6-3.8-3.13-5.57-4.83-4.14-3.97-8.13-8.09-12.32-12-1.85-1.73-4.03-3.1-6.07-4.63-.21-.15-.42-.31-.64-.46-1.01-.55-2.02-1.1-3.03-1.66-1.07-.42-2.14-.84-3.21-1.25-2.35-.38-4.71-.76-7.06-1.13-3.41-.13-6.8-.14-10.08,1.03-2.29.99-4.57,1.98-6.86,2.97-2.27,1.69-4.54,3.38-6.82,5.07-.54.54-1.07,1.07-1.61,1.61-.61.6-1.22,1.21-1.82,1.81-.46.53-.91,1.07-1.37,1.6-.6.69-1.2,1.38-1.8,2.07.03-.29.02-.6.09-.88.39-1.46.81-2.91,1.22-4.37.4-1.14.8-2.27,1.2-3.41.23-.58.46-1.17.69-1.75.78-1.69,1.55-3.38,2.33-5.07,1.43-2.29,2.86-4.58,4.29-6.88.08-.12.15-.25.23-.37.84-1.02,1.67-2.04,2.51-3.05.3-.35.61-.7.91-1.05.75-.72,1.5-1.44,2.25-2.17l1.17-1.05c1.09-.85,2.18-1.71,3.27-2.56.05-.05.1-.1.16-.16,1.26-.9,2.51-1.81,3.78-2.7.21-.15.47-.22.71-.31.79-.3,1.58-.6,2.38-.89,1.13-.49,2.26-.97,3.39-1.46,1.39-.44,2.78-.88,4.17-1.33.97-.24,1.93-.48,2.9-.73,1.16-.21,2.33-.41,3.49-.62,1.04-.1,2.09-.21,3.13-.31,1.15-.08,2.29-.15,3.44-.23,1.14-.08,2.28-.15,3.41-.23h3.43c1.14.08,2.28.15,3.41.23,1.14.09,2.28.18,3.43.27,1.13.17,2.27.35,3.4.52,1.14.23,2.27.46,3.41.68.84.22,1.68.44,2.52.66,1.45.51,2.91,1.02,4.36,1.53,1.13.48,2.27.97,3.4,1.45.31.13.62.27.92.4.84.45,1.69.89,2.53,1.34l6.84,4.61c.3.22.6.45.9.67.84.71,1.67,1.41,2.51,2.12.52.44,1.03.88,1.55,1.32.63.61,1.26,1.22,1.89,1.83.53.53,1.06,1.06,1.6,1.6.53.53,1.06,1.06,1.59,1.59.69.69,1.38,1.37,2.06,2.06.53.53,1.07,1.07,1.6,1.6.53.53,1.06,1.07,1.59,1.6.53.53,1.06,1.05,1.6,1.58,3.11,3.05,6.5,5.72,10.52,7.5,2.28.68,4.56,1.37,6.84,2.05,1.14.15,2.29.29,3.43.44,1.14.08,2.28.15,3.41.23,1.14-.15,2.29-.3,3.43-.46,2.28-.68,4.56-1.36,6.84-2.04,1.55-.82,3.1-1.64,4.65-2.46.74-.53,1.47-1.06,2.21-1.59.77-.62,1.53-1.24,2.3-1.85l1.13-.9c.84-.84,1.68-1.68,2.52-2.52.3-.37.6-.74.9-1.11.69-.77,1.38-1.54,2.07-2.31.37-.38.74-.75,1.11-1.13-.39,1.51-.77,3.03-1.16,4.54-.38,1.14-.76,2.28-1.14,3.42l-.91,2.46c-.67,1.47-1.34,2.93-2.01,4.4-1.37,2.28-2.74,4.57-4.11,6.85-.25.36-.49.71-.74,1.07-.62.77-1.24,1.54-1.86,2.31-.52.6-1.04,1.2-1.57,1.79-.54.54-1.09,1.09-1.63,1.63-.59.54-1.18,1.07-1.77,1.61-.61.52-1.23,1.04-1.84,1.56-.53.38-1.06.76-1.6,1.14-2.28,1.3-4.56,2.59-6.84,3.89-2.35.87-4.69,1.74-7.04,2.61-1.07.27-2.15.53-3.22.8-2.46.37-4.93.75-7.39,1.11-.95.14-1.91.23-2.86.34Z"/>
      </g>
    </g>
  </g>
</svg>