<?xml version="1.0" encoding="UTF-8"?>
<svg id="Layer_2" data-name="Layer 2" xmlns="http://www.w3.org/2000/svg" viewBox="0 0 187.57 187.57">
  <defs>
    <style>
      .cls-1 {
        fill: #231f20;
      }

      .cls-2 {
        fill: none;
        stroke: #231f20;
        stroke-miterlimit: 10;
        stroke-width: 5px;
      }
    </style>
  </defs>
  <g id="Layer_1-2" data-name="Layer 1">
    <g>
      <g>
        <rect class="cls-2" x="2.5" y="2.5" width="182.57" height="182.57" rx="15.28" ry="15.28"/>
        <path class="cls-1" d="m165,105.26c-.45-5.41-2.65-9.78-6.6-13.12-3.95-3.34-9.05-5.01-15.31-5.01-4.22,0-7.97.78-11.25,2.34-3.28,1.56-5.86,3.68-7.73,6.37-1.87,2.69-2.8,5.78-2.8,9.26,0,2.24.43,4.25,1.3,6.05.86,1.8,2.09,3.4,3.67,4.8,1.58,1.4,3.47,2.63,5.65,3.67,2.18,1.05,4.59,1.97,7.22,2.76l9.51,2.8c3.26.99,6.26,2.14,9.02,3.44,2.76,1.3,5.17,2.85,7.22,4.65,2.05,1.8,3.65,3.9,4.8,6.31,1.15,2.41,1.72,5.18,1.72,8.32,0,4.59-1.18,8.69-3.55,12.31-2.36,3.62-5.72,6.48-10.06,8.56-4.35,2.08-9.46,3.12-15.35,3.12s-10.48-.95-14.63-2.85c-4.15-1.9-7.42-4.54-9.83-7.92-2.41-3.38-3.77-7.28-4.08-11.7h5.44c.28,3.6,1.44,6.7,3.46,9.32,2.02,2.62,4.72,4.64,8.09,6.05,3.37,1.42,7.22,2.12,11.55,2.12,4.67,0,8.79-.8,12.36-2.4,3.57-1.6,6.36-3.83,8.37-6.69,2.01-2.86,3.02-6.19,3.02-9.98,0-3.06-.72-5.68-2.17-7.86-1.44-2.18-3.57-4.06-6.39-5.65-2.82-1.58-6.31-3-10.47-4.25l-10.15-3.06c-6.79-2.07-11.98-4.88-15.56-8.45-3.58-3.57-5.37-8.01-5.37-13.33,0-4.47,1.19-8.44,3.57-11.91,2.38-3.47,5.61-6.19,9.7-8.17,4.09-1.98,8.71-2.97,13.87-2.97s9.75,1,13.72,2.99c3.96,2,7.11,4.73,9.43,8.2,2.32,3.47,3.61,7.42,3.86,11.87h-5.22Z"/>
      </g>
      <path class="cls-1" d="m52.49,89.35v-4.94h61.15v4.94h-27.91v82.33h-5.33v-82.33h-27.91Z"/>
    </g>
  </g>
</svg>