<?xml version="1.0" encoding="UTF-8"?>
<svg id="Layer_2" data-name="Layer 2" xmlns="http://www.w3.org/2000/svg" viewBox="0 0 187.57 187.57">
  <defs>
    <style>
      .cls-1 {
        fill: #231f20;
      }

      .cls-2 {
        fill: none;
        stroke: #231f20;
        stroke-miterlimit: 10;
        stroke-width: 5px;
      }
    </style>
  </defs>
  <g id="Layer_1-2" data-name="Layer 1">
    <g>
      <g id="_53WzSC.tif" data-name="53WzSC.tif">
        <g>
          <path class="cls-1" d="m91.36,90.14c-.05.38-.04.77-.16,1.13-3.37,10.14-6.74,20.28-10.14,30.41-2.23,6.66-4.5,13.3-6.76,19.96-.07.22-.18.43-.31.75-.5-1.41-.97-2.71-1.42-4.03-1.24-3.64-2.48-7.29-3.7-10.94-1.26-3.76-2.47-7.54-3.73-11.3-1.33-3.99-2.71-7.96-4.05-11.94-1.05-3.13-2.06-6.27-3.11-9.39-2.07-6.16-4.15-12.32-6.23-18.48-.3-.9-.58-1.82-.92-2.71-2.11-5.5-3.63-11.18-5.67-16.85.7,0,1.36.17,1.86-.03,1.7-.7,3.48-.12,5.22-.43.94-.17,1.75-.55,2.62-.83.57-.18,1.2-.08,1.64-.8.63-1.02.86-2.74.19-3.78-.72-1.13-2.15-1.66-3.47-1.3-.17.05-.34.12-.51.12-1.28.07-2.57,0-3.82.22-1.11.2-2.27-.11-3.28.21-.87.28-1.64.05-2.44.1-2.01.1-4.04-.03-6.03.22-2.15.27-4.26-.19-6.4-.02-1.05.08-2.11.01-3.37.01.21-.42.33-.71.48-.97.25-.44.51-.87.77-1.31.06-.1.12-.2.2-.29.92-1.04,1.84-2.08,2.77-3.11,2.59-2.87,5-5.93,7.81-8.57,4.85-4.56,10.21-8.47,16.06-11.7,6.32-3.48,12.99-6.08,20.01-7.73,3.66-.86,7.36-1.6,11.14-1.73.03,0,.07.01.09,0,.71-.41,1.35-.58,2.25-.25.71.26,1.64-.07,2.47-.14.24,0,.48,0,.73,0,.96,0,1.93-.04,2.89.03,2.98.22,5.95.42,8.92.73,9.64,1,18.65,4.06,27.18,8.58,5.66,3,10.84,6.68,15.62,10.94.13.12.31.18.46.27-1.76.3-3.42.36-4.94.87-4.62,1.56-7.42,4.93-8.78,9.54-1.22,4.17-.47,8.2,1.38,11.98,1.67,3.42,3.57,6.73,5.6,9.96.93,1.47,1.59,3.05,2.43,4.55,1.64,2.94,2.71,6.11,3.44,9.38.31,1.35.45,2.74.7,4.11.08.45.3.88.41,1.33.06.25.07.52.06.79-.07,1.17-.15,2.34-.24,3.51-.05.59-.14,1.17-.23,1.76-.11.79-.26,1.57-.36,2.36-.65,5.15-2.31,10.04-3.8,14.97-1.93,6.37-3.86,12.75-5.78,19.12-1.03,3.41-2.05,6.82-3.06,10.23-.19.65-.37,1.3-.56,1.96-.06.03-.13.06-.19.09-1.14-3.25-2.3-6.5-3.4-9.76-1.42-4.22-2.78-8.47-4.2-12.7-1.61-4.8-3.27-9.59-4.89-14.39-1.03-3.07-2.02-6.15-3.05-9.22-2.08-6.2-4.16-12.39-6.25-18.58-1.61-4.76-3.24-9.52-4.84-14.29-.66-1.96-1.27-3.93-1.93-5.98.38-.02.7-.05,1.02-.05.18,0,.38.07.54.01.86-.35,1.71-.54,2.62-.19.06.02.19-.04.23-.11.51-.67,1.02-.61,1.67-.16.14.09.65-.35,1.07-.59.46.26,1.04.63,1.46-.19,1.09.41,1.82.27,2.53-.54.81-.92,1.13-2.06.68-3.17-.98-2.4-1.94-2.41-4.58-2.23-1.02.07-2.04.25-3.06.31-1.31.09-2.7-.13-3.92.23-1.35.41-2.62,0-3.92.1-2,.15-4.01.19-6.02.21-3.2.03-6.39.01-9.59,0-1.61,0-3.22,0-4.82-.09-2.76-.17-5.51-.41-8.26-.63-.2-.02-.4-.11-.59-.16-1.73-.44-3.67.7-3.99,2.49-.35,1.91.58,3.57,2.43,3.87,1.87.3,3.77.45,5.66.64.92.09,1.85.08,2.76.22.25.04.54.4.64.68,1.06,2.9,2.05,5.83,3.11,8.73,1.49,4.08,3.03,8.15,4.54,12.23,1.31,3.55,2.6,7.1,3.9,10.65.11.31.25.6.38.91.04.06.08.11.11.17Z"/>
          <path class="cls-1" d="m95.78,102.07c.16.49.32.98.47,1.47.07.17.15.34.23.51.35,1.09.7,2.19,1.05,3.28.19.59.38,1.19.57,1.78.12.12.24.24.36.36h0c.04.12.09.24.13.36.08.42.15.84.23,1.27.16.12.32.24.48.36-.07,1.29.55,2.36,1.09,3.45.07.17.15.34.23.51.33,1.04.65,2.08.99,3.11.21.65.43,1.3.64,1.95.12.12.24.24.36.36h0c.04.12.09.24.13.36.08.42.15.84.23,1.27l.48.36c-.1,1.3.62,2.34,1.09,3.45.07.17.15.34.23.51,0,.08,0,.16-.01.24,0,0,0,.09,0,.09l1.63,4.73.36.36h0c.05.18.09.36.14.54l.23,1.09.48.36c.08.54.16,1.08.24,1.62.12.12.24.24.35.36.17.49.33.98.5,1.47.07.17.15.34.23.51,0,.08,0,.16-.01.24,0,0,0,.09,0,.09.17.38.34.76.5,1.15.06.17.12.34.18.51.14.48.26.98.43,1.45,3.06,8.4,6.13,16.79,9.2,25.19.23.62.49,1.22.8,1.98-16.08,5.55-32.24,5.94-48.65,1.24.76-2.21,1.49-4.37,2.23-6.51,2.71-7.88,5.43-15.77,8.14-23.65,1.08-3.14,2.12-6.3,3.2-9.45,1.26-3.68,2.54-7.35,3.79-11.03,1.34-3.93,2.65-7.86,3.98-11.79.66-1.96,1.34-3.92,2.02-5.88.22-.12.45-.24.67-.36.06.06.12.13.18.19.07.18.14.36.2.54Z"/>
          <path class="cls-1" d="m50.04,139.99c.28.86.54,1.74.84,2.59,1.18,3.36,2.35,6.72,3.57,10.07,1.3,3.55,2.65,7.07,3.97,10.61.21.57.37,1.16.61,1.96-8.25-4-15.43-9.17-21.68-15.54-10.34-10.56-17.3-23.05-20.78-37.45-.46-1.89-.79-3.81-1.09-5.73-.28-1.82-.87-3.58-.81-5.47.06-1.94-.12-3.89-.15-5.83-.03-1.95.04-3.91-.01-5.86-.06-1.87.34-3.67.55-5.5.22-1.89.63-3.74,1-5.6.37-1.88.83-3.74,1.35-5.58.52-1.85,1.08-3.69,1.75-5.49.65-1.73,1.06-3.57,2.04-5.2.44.91,1.45,1.45,1.24,2.56-.01.06-.01.14.02.18,1.04,1.34.93,3.09,1.62,4.57.69,1.49,1.13,3.1,1.74,4.63.41,1.03.99,1.99,1.41,3.01.19.48.1,1.07.27,1.57.79,2.26,1.6,4.51,2.45,6.75.21.56.75,1.03.88,1.59.78,3.4,2.1,6.61,3.3,9.86.37,1,.91,1.95,1.37,2.92.03.05.09.1.09.15-.05,1.43.7,2.59,1.23,3.84.51,1.21.77,2.52,1.2,3.77.57,1.67,1.16,3.34,1.79,4.99.35.9.86,1.75,1.19,2.65.44,1.2.73,2.45,1.16,3.66.48,1.34,1.21,2.6,1.54,3.97.25,1.06,1.08,1.84,1.05,3.06-.02.76.65,1.55,1,2.32.06.13.11.28.16.42.89,2.47,1.8,4.94,2.67,7.42.31.88.51,1.8.81,2.69.11.33.34.61.52.92.04.18.09.36.13.54Z"/>
          <path class="cls-1" d="m162.32,133.84c-2.85,4.78-6.08,9.29-9.86,13.38-.07.05-.13.11-.2.16-1.5,1.54-2.93,3.16-4.53,4.59-2.15,1.94-4.4,3.79-6.67,5.58-1.44,1.13-3,2.1-4.51,3.14,0,0-.04-.02-.04-.02,0,0,.05.01.05.01-.81.49-1.62.97-2.42,1.46-.08-.08-.16-.15-.24-.23.86-2.56,1.7-5.13,2.58-7.69,1.29-3.78,2.6-7.55,3.9-11.33,1.07-3.1,2.15-6.2,3.21-9.31.63-1.85,1.21-3.73,1.86-5.58,1.17-3.32,2.41-6.62,3.57-9.95.96-2.75,1.81-5.53,2.76-8.28.95-2.75,1.98-5.48,2.95-8.22.78-2.23,1.59-4.47,2.24-6.74.31-1.09.93-2.02,1.21-3.1.1-.4.21-.81.31-1.21.17-.3.33-.59.5-.89.5-1.5,1.01-3,1.51-4.5.13-.39.27-.78.41-1.17.02-.16.04-.33.06-.49.07-.36.14-.71.22-1.07.07-.11.15-.22.22-.33-.01-.37-.02-.74-.04-1.11l.49-.39c.25-1.32.54-2.64.75-3.97.29-1.88.54-3.77.77-5.65.18-1.47.32-2.95.48-4.42,0-.12,0-.24,0-.36,0-1.44.05-2.88,0-4.31-.05-1.2-.24-2.38-.33-3.58-.02-.32.12-.64.19-.97.09-.02.19-.04.28-.06.67,1.29,1.35,2.58,2.02,3.87.11.18.21.36.32.54.01.06.03.13.04.19,0,.05,0,.11,0,.16l1.62,4.15.31.36c.42,1.35.85,2.7,1.26,4.06.34,1.14.65,2.29.98,3.44.25.86.54,1.71.75,2.58.12.48.04,1.01.15,1.49.26,1.21.64,2.39.85,3.61.17.98.16,1.98.25,2.98.09.94.21,1.88.32,2.81,0,.04,0,.08,0,.12.24,3.03.25,6.07.19,9.1-.02,1.22-.27,2.43-.32,3.65-.04.9.06,1.81.1,2.72,0,.18.08.39.01.53-.91,2.01-.82,4.24-1.38,6.32"/>
          <path class="cls-1" d="m95.4,101.35c-.22.12-.45.24-.67.36.03-.22.07-.44.1-.66.19.1.38.2.57.3Z"/>
          <path class="cls-1" d="m158.96,89.63c-.17.3-.33.59-.5.89.17-.3.33-.59.5-.89Z"/>
          <path class="cls-1" d="m92.16,14.65c-.24,0-.48,0-.73,0,.24-.48.48-.48.73,0Z"/>
          <path class="cls-1" d="m161.83,80.56l-.49.39.49-.39Z"/>
          <path class="cls-1" d="m95.78,102.07c-.07-.18-.14-.36-.2-.54.07.18.14.36.2.54Z"/>
          <path class="cls-1" d="m160.94,83.46c-.02.16-.04.33-.06.49-.08-.1-.17-.19-.25-.29.1-.07.21-.13.31-.2Z"/>
          <path class="cls-1" d="m96.48,104.05c-.08-.17-.15-.34-.23-.51.08.17.15.34.23.51Z"/>
          <path class="cls-1" d="m166.31,61.63c-.11-.18-.21-.36-.32-.54.11.18.21.36.32.54Z"/>
          <path class="cls-1" d="m50.04,139.99c-.04-.18-.09-.36-.13-.54.04.18.09.36.13.54Z"/>
          <path class="cls-1" d="m108.94,138.17c-.08-.17-.15-.34-.23-.51.08.17.15.34.23.51Z"/>
          <path class="cls-1" d="m108.22,136.19c-.12-.12-.24-.24-.35-.36.12.12.24.24.35.36Z"/>
          <path class="cls-1" d="m107.62,134.21l-.48-.36.48.36Z"/>
          <path class="cls-1" d="m106.91,132.76c-.05-.18-.09-.36-.14-.54.05.18.09.36.14.54Z"/>
          <path class="cls-1" d="m104.79,126.8c-.08-.17-.15-.34-.23-.51.08.17.15.34.23.51Z"/>
          <path class="cls-1" d="m103.47,122.83l-.48-.36.48.36Z"/>
          <path class="cls-1" d="m100.64,115.43c-.08-.17-.15-.34-.23-.51.08.17.15.34.23.51Z"/>
          <path class="cls-1" d="m99.32,111.46c-.16-.12-.32-.24-.48-.36.16.12.32.24.48.36Z"/>
          <path class="cls-1" d="m163.83,66.14c0,.12,0,.24,0,.36-.1-.02-.2-.04-.37-.08.17-.13.28-.21.38-.29Z"/>
          <path class="cls-1" d="m98.47,109.47c-.12-.12-.24-.24-.36-.36.12.12.24.24.36.36Z"/>
          <path class="cls-1" d="m109.62,140.16c-.06-.17-.12-.34-.18-.51.06.17.12.34.18.51Z"/>
          <path class="cls-1" d="m161.38,82.06c-.07.11-.15.22-.22.33.07-.11.15-.22.22-.33Z"/>
          <path class="cls-1" d="m168.29,66.5l-.31-.36.31.36Z"/>
          <path class="cls-1" d="m102.62,120.85c-.12-.12-.24-.24-.36-.36.12.12.24.24.36.36Z"/>
          <path class="cls-1" d="m106.77,132.22c-.12-.12-.24-.24-.36-.36.12.12.24.24.36.36Z"/>
          <path class="cls-1" d="m102.75,121.21c-.04-.12-.09-.24-.13-.36.04.12.09.24.13.36Z"/>
          <path class="cls-1" d="m98.6,109.83c-.04-.12-.09-.24-.13-.36.04.12.09.24.13.36Z"/>
          <path class="cls-1" d="m134.05,162.19l-.25.14c0-.05,0-.11.01-.16.08,0,.16.01.24.02Z"/>
          <path class="cls-1" d="m133.31,141.71c.06-.03.13-.06.19-.09-.02.08-.03.15-.05.23-.05-.05-.09-.09-.14-.14Z"/>
          <path class="cls-1" d="m108.93,138.51s0-.09,0-.09c.04,0,.09.02.13.03-.04.02-.08.04-.12.06Z"/>
          <path class="cls-1" d="m134.05,162.19c-.08,0-.16-.01-.24-.02.03-.08.05-.17.08-.25.08.08.16.15.24.23-.02.03-.05.05-.09.04Z"/>
          <path class="cls-1" d="m152.26,147.38c.07-.05.13-.11.2-.16-.07.05-.13.11-.2.16Z"/>
          <path class="cls-1" d="m172.85,87.6s0-.08,0-.12c.05.02.09.04.14.06-.04.02-.09.04-.13.06Z"/>
          <path class="cls-1" d="m91.36,90.14c-.04-.06-.08-.11-.11-.17.04.06.08.11.11.17Z"/>
          <path class="cls-1" d="m166.36,61.99c0-.05,0-.11,0-.16.05.02.09.05.14.07-.04.03-.09.06-.13.09Z"/>
          <path class="cls-1" d="m104.78,127.13s0-.09,0-.09c.04,0,.09.02.13.03-.04.02-.08.04-.12.06Z"/>
          <polygon class="cls-1" points="136.56 160.69 136.51 160.67 136.55 160.69 136.56 160.69"/>
        </g>
      </g>
      <circle class="cls-2" cx="93.78" cy="93.78" r="91.28"/>
    </g>
  </g>
</svg>